<svg xmlns="http://www.w3.org/2000/svg" xmlns:xlink="http://www.w3.org/1999/xlink" zoomAndPan="magnify" preserveAspectRatio="xMidYMid meet" version="1.0" viewBox="310.94 227.78 817.81 369.84"><defs><g/><clipPath id="28c93d3cbb"><path d="M 1101.386719 487.5 L 1128.75 487.5 L 1128.75 504 L 1101.386719 504 Z M 1101.386719 487.5 " clip-rule="nonzero"/></clipPath><clipPath id="9f6ac99d2c"><path d="M 1115.066406 503.800781 L 1128.75 487.5 L 1101.386719 487.5 L 1115.066406 503.800781 " clip-rule="nonzero"/></clipPath><clipPath id="441cda52c0"><path d="M 645.386719 487.789062 L 1115 487.789062 L 1115 503.800781 L 645.386719 503.800781 Z M 645.386719 487.789062 " clip-rule="nonzero"/></clipPath><clipPath id="125ee35f3a"><path d="M 324.75 487.789062 L 645.386719 487.789062 L 645.386719 503.800781 L 324.75 503.800781 Z M 324.75 487.789062 " clip-rule="nonzero"/></clipPath><clipPath id="f805847d8d"><path d="M 628.070312 487.386719 L 662.539062 487.386719 L 662.539062 503.796875 L 628.070312 503.796875 Z M 628.070312 487.386719 " clip-rule="nonzero"/></clipPath><clipPath id="c6982dbffc"><path d="M 645.378906 487.789062 L 628.222656 503.796875 L 662.539062 503.796875 L 645.378906 487.789062 " clip-rule="nonzero"/></clipPath><clipPath id="da581ee90e"><path d="M 311 488 L 338.429688 488 L 338.429688 503.789062 L 311 503.789062 Z M 311 488 " clip-rule="nonzero"/></clipPath><clipPath id="258ecf1bf8"><path d="M 324.75 488.109375 L 311.066406 503.789062 L 338.429688 503.789062 L 324.75 488.109375 " clip-rule="nonzero"/></clipPath></defs><g fill="#fafafa" fill-opacity="1"><g transform="translate(314.267715, 300.18727)"><g><path d="M 36.203125 -72.40625 L 129.640625 -72.40625 C 128.910156 -71.125 127.65625 -69.457031 125.875 -67.40625 C 124.101562 -65.363281 122.191406 -63.335938 120.140625 -61.328125 C 118.097656 -59.328125 116.117188 -57.597656 114.203125 -56.140625 C 112.296875 -54.679688 110.882812 -53.953125 109.96875 -53.953125 L 59.5625 -53.953125 L 50.140625 -32.515625 L 65.703125 -45.078125 L 103.546875 -45.078125 L 80.1875 -26.640625 L 47.546875 -26.640625 L 35.921875 0 L 4.640625 0 Z M 36.203125 -72.40625 "/></g></g></g><g fill="#fafafa" fill-opacity="1"><g transform="translate(418.352481, 300.18727)"><g><path d="M 130.59375 -39.203125 C 129.59375 -33.828125 127.453125 -28.769531 124.171875 -24.03125 C 120.898438 -19.300781 116.847656 -15.160156 112.015625 -11.609375 C 107.191406 -8.054688 101.75 -5.234375 95.6875 -3.140625 C 89.632812 -1.046875 83.375 0 76.90625 0 L 60.515625 0 C 54.503906 0 48.925781 -0.40625 43.78125 -1.21875 C 38.632812 -2.039062 34.191406 -3.429688 30.453125 -5.390625 C 26.722656 -7.347656 23.8125 -10.007812 21.71875 -13.375 C 19.625 -16.75 18.578125 -20.988281 18.578125 -26.09375 C 18.578125 -27.1875 18.625 -28.320312 18.71875 -29.5 C 18.8125 -30.6875 18.945312 -31.921875 19.125 -33.203125 C 20.03125 -38.296875 22.078125 -43.207031 25.265625 -47.9375 C 28.453125 -52.675781 32.367188 -56.84375 37.015625 -60.4375 C 41.660156 -64.039062 46.828125 -66.9375 52.515625 -69.125 C 58.210938 -71.3125 63.929688 -72.40625 69.671875 -72.40625 L 91.25 -72.40625 C 104.457031 -72.40625 114.5 -70.515625 121.375 -66.734375 C 128.25 -62.953125 131.6875 -56.691406 131.6875 -47.953125 C 131.6875 -46.585938 131.59375 -45.175781 131.40625 -43.71875 C 131.226562 -42.257812 130.957031 -40.753906 130.59375 -39.203125 Z M 50 -35.109375 C 49.90625 -35.015625 49.859375 -34.695312 49.859375 -34.15625 L 49.859375 -33.328125 C 49.859375 -31.691406 50.242188 -29.984375 51.015625 -28.203125 C 51.796875 -26.429688 52.820312 -24.816406 54.09375 -23.359375 C 55.375 -21.898438 56.898438 -20.710938 58.671875 -19.796875 C 60.453125 -18.890625 62.296875 -18.4375 64.203125 -18.4375 L 75.140625 -18.4375 C 76.234375 -18.4375 77.78125 -18.820312 79.78125 -19.59375 C 81.78125 -20.375 83.875 -21.398438 86.0625 -22.671875 C 88.25 -23.953125 90.320312 -25.390625 92.28125 -26.984375 C 94.238281 -28.578125 95.71875 -30.144531 96.71875 -31.6875 C 97.8125 -33.0625 98.40625 -34.066406 98.5 -34.703125 L 99.171875 -36.0625 C 99.265625 -36.519531 99.332031 -36.863281 99.375 -37.09375 C 99.425781 -37.320312 99.453125 -37.390625 99.453125 -37.296875 C 99.722656 -38.753906 99.859375 -40.300781 99.859375 -41.9375 C 99.859375 -43.394531 99.675781 -44.851562 99.3125 -46.3125 C 98.945312 -47.769531 98.285156 -49.066406 97.328125 -50.203125 C 96.378906 -51.335938 95.0625 -52.242188 93.375 -52.921875 C 91.6875 -53.609375 89.476562 -53.953125 86.75 -53.953125 L 73.5 -53.953125 C 71.769531 -53.953125 69.878906 -53.566406 67.828125 -52.796875 C 65.773438 -52.023438 63.769531 -51 61.8125 -49.71875 C 59.851562 -48.445312 58.03125 -47.015625 56.34375 -45.421875 C 54.664062 -43.828125 53.328125 -42.253906 52.328125 -40.703125 C 51.679688 -39.609375 51.15625 -38.582031 50.75 -37.625 C 50.34375 -36.675781 50.09375 -35.835938 50 -35.109375 Z M 50 -35.109375 "/></g></g></g><g fill="#fafafa" fill-opacity="1"><g transform="translate(538.828503, 300.18727)"><g><path d="M 4.640625 0 L 36.203125 -72.40625 L 109.28125 -72.40625 C 113.019531 -72.40625 116.070312 -71.71875 118.4375 -70.34375 C 120.800781 -68.976562 122.644531 -67.25 123.96875 -65.15625 C 125.289062 -63.0625 126.175781 -60.785156 126.625 -58.328125 C 127.082031 -55.867188 127.3125 -53.59375 127.3125 -51.5 C 127.3125 -46.851562 125.96875 -43.023438 123.28125 -40.015625 C 120.601562 -37.015625 117.191406 -34.625 113.046875 -32.84375 C 108.898438 -31.070312 104.367188 -29.800781 99.453125 -29.03125 C 94.535156 -28.257812 89.84375 -27.734375 85.375 -27.453125 L 117.484375 0 L 82.515625 0 L 48.640625 -25.953125 L 46.859375 -24.859375 L 36.0625 0 Z M 95.625 -50 L 95.625 -51.5 C 95.625 -52.226562 95.441406 -52.84375 95.078125 -53.34375 C 94.710938 -53.84375 93.894531 -54.09375 92.625 -54.09375 L 59.703125 -54.09375 L 50.265625 -32.78125 L 64.75 -44.9375 L 90.984375 -44.9375 C 92.617188 -44.9375 93.800781 -45.550781 94.53125 -46.78125 C 95.257812 -48.019531 95.625 -49.09375 95.625 -50 Z M 95.625 -50 "/></g></g></g><g fill="#fafafa" fill-opacity="1"><g transform="translate(654.796927, 300.18727)"><g><path d="M 132.515625 0 L 100.953125 0 L 118.71875 -40.703125 L 74.046875 0 L 62.84375 0 L 53.828125 -40.703125 L 36.0625 0 L 4.640625 0 L 36.203125 -72.40625 L 75.953125 -72.40625 L 84.28125 -36.0625 L 124.453125 -72.40625 L 164.0625 -72.40625 Z M 132.515625 0 "/></g></g></g><g fill="#fafafa" fill-opacity="1"><g transform="translate(794.122898, 300.18727)"><g><path d="M 23.21875 -42.078125 C 22.21875 -38.984375 21.332031 -36.25 20.5625 -33.875 C 19.789062 -31.507812 19.128906 -29.144531 18.578125 -26.78125 C 18.035156 -24.132812 17.765625 -21.898438 17.765625 -20.078125 C 17.765625 -16.441406 18.398438 -13.347656 19.671875 -10.796875 C 20.941406 -8.242188 23.125 -6.171875 26.21875 -4.578125 C 29.320312 -2.984375 33.398438 -1.820312 38.453125 -1.09375 C 43.503906 -0.363281 49.859375 0 57.515625 0 L 76.78125 0 C 83.238281 0 88.835938 -0.835938 93.578125 -2.515625 C 98.316406 -4.203125 102.484375 -6.6875 106.078125 -9.96875 C 109.671875 -13.25 112.878906 -17.28125 115.703125 -22.0625 C 118.523438 -26.84375 121.304688 -32.375 124.046875 -38.65625 L 138.796875 -72.40625 L 107.640625 -72.40625 L 90.03125 -31.828125 C 89.207031 -30.554688 88.15625 -29.144531 86.875 -27.59375 C 85.601562 -26.039062 84.078125 -24.582031 82.296875 -23.21875 C 80.523438 -21.851562 78.523438 -20.710938 76.296875 -19.796875 C 74.066406 -18.890625 71.628906 -18.4375 68.984375 -18.4375 L 60.921875 -18.4375 C 57.921875 -18.4375 55.484375 -19.320312 53.609375 -21.09375 C 51.742188 -22.875 50.8125 -25.359375 50.8125 -28.546875 C 50.8125 -29.640625 51.085938 -31.097656 51.640625 -32.921875 C 51.640625 -33.191406 51.726562 -33.664062 51.90625 -34.34375 C 52.09375 -35.03125 52.6875 -36.648438 53.6875 -39.203125 C 54.6875 -41.753906 56.234375 -45.601562 58.328125 -50.75 C 60.421875 -55.894531 63.382812 -63.113281 67.21875 -72.40625 L 36.203125 -72.40625 Z M 23.21875 -42.078125 "/></g></g></g><g fill="#fafafa" fill-opacity="1"><g transform="translate(908.179014, 300.18727)"><g><path d="M 4.640625 0 L 76.5 0 C 78.050781 -1 79.960938 -2.523438 82.234375 -4.578125 C 84.515625 -6.628906 86.703125 -8.675781 88.796875 -10.71875 C 90.890625 -12.769531 92.640625 -14.566406 94.046875 -16.109375 C 95.460938 -17.660156 96.082031 -18.4375 95.90625 -18.4375 L 43.984375 -18.4375 L 67.484375 -72.40625 L 36.203125 -72.40625 Z M 4.640625 0 "/></g></g></g><g fill="#fafafa" fill-opacity="1"><g transform="translate(1002.292427, 300.18727)"><g><path d="M 120.765625 0 L 91.671875 0 L 88.25 -15.4375 C 88.0625 -14.894531 87.285156 -13.847656 85.921875 -12.296875 C 84.554688 -10.742188 83.007812 -9.101562 81.28125 -7.375 C 79.550781 -5.644531 77.863281 -4.050781 76.21875 -2.59375 C 74.582031 -1.132812 73.398438 -0.269531 72.671875 0 L 3.28125 0 C 3.457031 -0.90625 3.546875 -1.222656 3.546875 -0.953125 L 3.546875 -1.359375 L 62.5625 -64.203125 C 62.925781 -64.753906 63.585938 -65.484375 64.546875 -66.390625 C 65.503906 -67.304688 66.570312 -68.195312 67.75 -69.0625 C 68.9375 -69.925781 70.097656 -70.695312 71.234375 -71.375 C 72.378906 -72.0625 73.316406 -72.40625 74.046875 -72.40625 L 101.640625 -72.40625 C 102.816406 -72.40625 103.835938 -71.898438 104.703125 -70.890625 C 105.578125 -69.890625 106.351562 -68.660156 107.03125 -67.203125 C 107.71875 -65.753906 108.3125 -64.234375 108.8125 -62.640625 C 109.3125 -61.046875 109.695312 -59.703125 109.96875 -58.609375 Z M 54.921875 -19.671875 L 54.921875 -18.3125 L 88.25 -18.3125 L 82.515625 -50.40625 Z M 54.921875 -19.671875 "/></g></g></g><g fill="#fafafa" fill-opacity="1"><g transform="translate(320.455215, 444.937262)"><g><path d="M 82.515625 -22.953125 L 82.515625 -22.125 C 82.515625 -21.21875 82.375 -20.351562 82.09375 -19.53125 C 81.820312 -18.71875 80.867188 -18.3125 79.234375 -18.3125 L 23.5 -18.3125 C 23.132812 -18.3125 22.128906 -17.515625 20.484375 -15.921875 C 18.847656 -14.328125 17.070312 -12.503906 15.15625 -10.453125 C 13.25 -8.398438 11.453125 -6.367188 9.765625 -4.359375 C 8.078125 -2.359375 6.960938 -0.90625 6.421875 0 L 90.03125 0 C 92.9375 0 95.78125 -0.75 98.5625 -2.25 C 101.34375 -3.757812 103.800781 -5.648438 105.9375 -7.921875 C 108.082031 -10.203125 109.8125 -12.6875 111.125 -15.375 C 112.445312 -18.0625 113.109375 -20.585938 113.109375 -22.953125 L 113.109375 -23.765625 C 113.109375 -25.859375 112.722656 -28.132812 111.953125 -30.59375 C 111.179688 -33.050781 110 -35.347656 108.40625 -37.484375 C 106.8125 -39.628906 104.757812 -41.40625 102.25 -42.8125 C 99.75 -44.226562 96.765625 -44.9375 93.296875 -44.9375 L 62.15625 -44.9375 C 62.0625 -44.9375 61.601562 -45.097656 60.78125 -45.421875 C 59.96875 -45.742188 59.332031 -46.085938 58.875 -46.453125 C 58.601562 -46.628906 58.257812 -46.875 57.84375 -47.1875 C 57.4375 -47.507812 57.234375 -47.71875 57.234375 -47.8125 L 57.234375 -48.5 C 57.234375 -49.3125 57.644531 -50.398438 58.46875 -51.765625 C 59.289062 -53.140625 60.335938 -53.828125 61.609375 -53.828125 L 115.703125 -53.828125 C 119.710938 -56.921875 123.3125 -60.015625 126.5 -63.109375 C 129.6875 -66.210938 132.554688 -69.3125 135.109375 -72.40625 L 51.5 -72.40625 C 48.40625 -72.40625 45.332031 -71.5625 42.28125 -69.875 C 39.226562 -68.1875 36.492188 -66.085938 34.078125 -63.578125 C 31.671875 -61.078125 29.710938 -58.4375 28.203125 -55.65625 C 26.703125 -52.882812 25.953125 -50.40625 25.953125 -48.21875 C 25.953125 -45.851562 26.453125 -43.441406 27.453125 -40.984375 C 28.460938 -38.523438 29.898438 -36.269531 31.765625 -34.21875 C 33.628906 -32.164062 35.878906 -30.476562 38.515625 -29.15625 C 41.160156 -27.84375 44.125 -27.1875 47.40625 -27.1875 L 80.1875 -27.1875 C 81.101562 -27.1875 81.71875 -26.796875 82.03125 -26.015625 C 82.351562 -25.242188 82.515625 -24.492188 82.515625 -23.765625 Z M 82.515625 -22.953125 "/></g></g></g><g fill="#fafafa" fill-opacity="1"><g transform="translate(430.959886, 444.937262)"><g><path d="M 34.703125 0 L 58.328125 -53.953125 L 27.328125 -53.953125 L 27.328125 -54.09375 C 27.410156 -54.457031 28.203125 -55.457031 29.703125 -57.09375 C 31.210938 -58.738281 32.988281 -60.5625 35.03125 -62.5625 C 37.082031 -64.570312 39.175781 -66.507812 41.3125 -68.375 C 43.457031 -70.238281 45.257812 -71.582031 46.71875 -72.40625 L 128.828125 -72.40625 C 128.097656 -71.125 126.84375 -69.457031 125.0625 -67.40625 C 123.289062 -65.363281 121.378906 -63.335938 119.328125 -61.328125 C 117.273438 -59.328125 115.289062 -57.597656 113.375 -56.140625 C 111.46875 -54.679688 110.0625 -53.953125 109.15625 -53.953125 L 89.890625 -53.953125 L 66.25 0 Z M 34.703125 0 "/></g></g></g><g fill="#fafafa" fill-opacity="1"><g transform="translate(534.225071, 444.937262)"><g><path d="M 23.21875 -42.078125 C 22.21875 -38.984375 21.332031 -36.25 20.5625 -33.875 C 19.789062 -31.507812 19.128906 -29.144531 18.578125 -26.78125 C 18.035156 -24.132812 17.765625 -21.898438 17.765625 -20.078125 C 17.765625 -16.441406 18.398438 -13.347656 19.671875 -10.796875 C 20.941406 -8.242188 23.125 -6.171875 26.21875 -4.578125 C 29.320312 -2.984375 33.398438 -1.820312 38.453125 -1.09375 C 43.503906 -0.363281 49.859375 0 57.515625 0 L 76.78125 0 C 83.238281 0 88.835938 -0.835938 93.578125 -2.515625 C 98.316406 -4.203125 102.484375 -6.6875 106.078125 -9.96875 C 109.671875 -13.25 112.878906 -17.28125 115.703125 -22.0625 C 118.523438 -26.84375 121.304688 -32.375 124.046875 -38.65625 L 138.796875 -72.40625 L 107.640625 -72.40625 L 90.03125 -31.828125 C 89.207031 -30.554688 88.15625 -29.144531 86.875 -27.59375 C 85.601562 -26.039062 84.078125 -24.582031 82.296875 -23.21875 C 80.523438 -21.851562 78.523438 -20.710938 76.296875 -19.796875 C 74.066406 -18.890625 71.628906 -18.4375 68.984375 -18.4375 L 60.921875 -18.4375 C 57.921875 -18.4375 55.484375 -19.320312 53.609375 -21.09375 C 51.742188 -22.875 50.8125 -25.359375 50.8125 -28.546875 C 50.8125 -29.640625 51.085938 -31.097656 51.640625 -32.921875 C 51.640625 -33.191406 51.726562 -33.664062 51.90625 -34.34375 C 52.09375 -35.03125 52.6875 -36.648438 53.6875 -39.203125 C 54.6875 -41.753906 56.234375 -45.601562 58.328125 -50.75 C 60.421875 -55.894531 63.382812 -63.113281 67.21875 -72.40625 L 36.203125 -72.40625 Z M 23.21875 -42.078125 "/></g></g></g><g fill="#fafafa" fill-opacity="1"><g transform="translate(648.281187, 444.937262)"><g><path d="M 116.25 -32.921875 C 119.625 -36.742188 122.128906 -40.726562 123.765625 -44.875 C 125.410156 -49.019531 126.234375 -52.867188 126.234375 -56.421875 C 126.234375 -61.066406 124.75 -64.890625 121.78125 -67.890625 C 118.820312 -70.898438 114.066406 -72.40625 107.515625 -72.40625 L 36.203125 -72.40625 L 4.640625 0 L 45.359375 0 C 53.921875 0 61.59375 -0.613281 68.375 -1.84375 C 75.15625 -3.070312 81.347656 -5.003906 86.953125 -7.640625 C 92.554688 -10.285156 97.722656 -13.679688 102.453125 -17.828125 C 107.191406 -21.972656 111.789062 -27.003906 116.25 -32.921875 Z M 59.96875 -53.953125 L 86.609375 -53.953125 C 88.703125 -53.953125 90.132812 -53.425781 90.90625 -52.375 C 91.6875 -51.332031 92.078125 -50.039062 92.078125 -48.5 C 92.078125 -47.3125 91.734375 -46.035156 91.046875 -44.671875 C 90.367188 -43.304688 89.707031 -41.894531 89.0625 -40.4375 C 88.425781 -39.25 87.695312 -38.195312 86.875 -37.28125 C 86.0625 -36.375 85.335938 -35.554688 84.703125 -34.828125 C 83.148438 -32.828125 80.914062 -30.847656 78 -28.890625 C 75.082031 -26.929688 71.867188 -25.175781 68.359375 -23.625 C 64.859375 -22.082031 61.351562 -20.832031 57.84375 -19.875 C 54.34375 -18.914062 51.273438 -18.4375 48.640625 -18.4375 L 44.390625 -18.4375 Z M 59.96875 -53.953125 "/></g></g></g><g fill="#fafafa" fill-opacity="1"><g transform="translate(758.512688, 444.937262)"><g><path d="M 36.203125 -72.40625 L 129.640625 -72.40625 C 128.910156 -71.125 127.65625 -69.457031 125.875 -67.40625 C 124.101562 -65.363281 122.191406 -63.335938 120.140625 -61.328125 C 118.097656 -59.328125 116.117188 -57.597656 114.203125 -56.140625 C 112.296875 -54.679688 110.882812 -53.953125 109.96875 -53.953125 L 59.5625 -53.953125 L 50.140625 -32.515625 L 65.703125 -45.078125 L 103.546875 -45.078125 L 80.1875 -26.640625 L 47.546875 -26.640625 L 43.984375 -18.4375 L 106.6875 -18.4375 C 106.601562 -18.257812 106.351562 -17.875 105.9375 -17.28125 C 105.53125 -16.6875 105.097656 -16.070312 104.640625 -15.4375 C 104.179688 -14.800781 103.722656 -14.207031 103.265625 -13.65625 C 102.816406 -13.113281 102.546875 -12.796875 102.453125 -12.703125 C 101.453125 -11.609375 100.109375 -10.332031 98.421875 -8.875 C 96.742188 -7.414062 95.082031 -6.023438 93.4375 -4.703125 C 91.800781 -3.390625 90.34375 -2.273438 89.0625 -1.359375 C 87.789062 -0.453125 87.109375 0 87.015625 0 L 4.640625 0 Z M 36.203125 -72.40625 "/></g></g></g><g fill="#fafafa" fill-opacity="1"><g transform="translate(863.280414, 444.937262)"><g><path d="M 4.640625 0 L 36.203125 -72.40625 L 75.953125 -72.40625 L 85.25 -31.6875 L 103.140625 -72.40625 L 134.28125 -72.40625 L 102.59375 0 L 62.984375 0 L 53.828125 -40.703125 L 36.0625 0 Z M 4.640625 0 "/></g></g></g><g fill="#fafafa" fill-opacity="1"><g transform="translate(972.828931, 444.937262)"><g><path d="M 34.703125 0 L 58.328125 -53.953125 L 27.328125 -53.953125 L 27.328125 -54.09375 C 27.410156 -54.457031 28.203125 -55.457031 29.703125 -57.09375 C 31.210938 -58.738281 32.988281 -60.5625 35.03125 -62.5625 C 37.082031 -64.570312 39.175781 -66.507812 41.3125 -68.375 C 43.457031 -70.238281 45.257812 -71.582031 46.71875 -72.40625 L 128.828125 -72.40625 C 128.097656 -71.125 126.84375 -69.457031 125.0625 -67.40625 C 123.289062 -65.363281 121.378906 -63.335938 119.328125 -61.328125 C 117.273438 -59.328125 115.289062 -57.597656 113.375 -56.140625 C 111.46875 -54.679688 110.0625 -53.953125 109.15625 -53.953125 L 89.890625 -53.953125 L 66.25 0 Z M 34.703125 0 "/></g></g></g><g fill="#fafafa" fill-opacity="1"><g transform="translate(1076.091899, 444.937262)"><g/></g></g><g clip-path="url(#28c93d3cbb)"><g clip-path="url(#9f6ac99d2c)"><path fill="#ff0000" d="M 1101.386719 487.5 L 1128.75 487.5 L 1128.75 503.746094 L 1101.386719 503.746094 Z M 1101.386719 487.5 " fill-opacity="1" fill-rule="nonzero"/></g></g><g fill="#fafafa" fill-opacity="1"><g transform="translate(352.377704, 596.33963)"><g><path d="M 36.925781 -74.707031 L 10.140625 -74.707031 L 10.140625 0 L 19.53125 0 L 19.53125 -26.789062 L 36.925781 -26.789062 C 51.121094 -26.789062 61.6875 -37.035156 61.6875 -50.695312 C 61.6875 -64.460938 51.015625 -74.707031 36.925781 -74.707031 Z M 36.5 -35.859375 L 19.53125 -35.859375 L 19.53125 -65.636719 L 36.5 -65.636719 C 45.570312 -65.636719 52.1875 -59.230469 52.1875 -50.695312 C 52.1875 -42.15625 45.570312 -35.859375 36.5 -35.859375 Z M 36.5 -35.859375 "/></g></g></g><g fill="#fafafa" fill-opacity="1"><g transform="translate(440.637969, 596.33963)"><g><path d="M 44.183594 1.28125 C 66.808594 1.28125 83.246094 -15.261719 83.246094 -37.246094 C 83.246094 -59.339844 66.808594 -75.882812 44.183594 -75.882812 C 21.558594 -75.882812 5.015625 -59.339844 5.015625 -37.246094 C 5.015625 -15.261719 21.558594 1.28125 44.183594 1.28125 Z M 44.183594 -7.898438 C 27.214844 -7.898438 14.621094 -20.597656 14.621094 -37.246094 C 14.621094 -54.003906 27.214844 -66.703125 44.183594 -66.703125 C 61.152344 -66.703125 73.746094 -54.109375 73.746094 -37.246094 C 73.746094 -20.492188 61.152344 -7.898438 44.183594 -7.898438 Z M 44.183594 -7.898438 "/></g></g></g><g fill="#fafafa" fill-opacity="1"><g transform="translate(552.270478, 596.33963)"><g><path d="M 53.683594 0 L 64.25 0 L 46.320312 -30.308594 C 56.136719 -33.085938 62.859375 -41.300781 62.859375 -51.867188 C 62.859375 -65.101562 52.507812 -74.707031 38.527344 -74.707031 L 10.140625 -74.707031 L 10.140625 0 L 19.53125 0 L 19.53125 -29.136719 L 36.5 -29.136719 Z M 19.53125 -65.742188 L 37.992188 -65.742188 C 47.171875 -65.742188 53.253906 -59.871094 53.253906 -51.867188 C 53.253906 -43.863281 47.171875 -38.101562 37.992188 -38.101562 L 19.53125 -38.101562 Z M 19.53125 -65.742188 "/></g></g></g><g fill="#fafafa" fill-opacity="1"><g transform="translate(644.159321, 596.33963)"><g><path d="M 56.992188 -74.707031 L 2.242188 -74.707031 L 2.242188 -65.847656 L 24.972656 -65.847656 L 24.972656 0 L 34.257812 0 L 34.257812 -65.847656 L 56.992188 -65.847656 Z M 56.992188 -74.707031 "/></g></g></g><g fill="#fafafa" fill-opacity="1"><g transform="translate(726.65657, 596.33963)"><g><path d="M 38.632812 1.28125 C 55.390625 1.28125 67.878906 -10.777344 67.878906 -27.75 L 67.878906 -74.707031 L 58.484375 -74.707031 L 58.484375 -28.496094 C 58.484375 -16.117188 50.160156 -7.898438 38.632812 -7.898438 C 27 -7.898438 18.785156 -16.117188 18.785156 -28.496094 L 18.785156 -74.707031 L 9.285156 -74.707031 L 9.285156 -27.75 C 9.285156 -10.777344 21.773438 1.28125 38.632812 1.28125 Z M 38.632812 1.28125 "/></g></g></g><g fill="#fafafa" fill-opacity="1"><g transform="translate(827.083186, 596.33963)"><g><path d="M 40.34375 -37.035156 L 40.34375 -28.175781 L 70.117188 -28.175781 C 67.449219 -16.007812 56.671875 -7.898438 43.011719 -7.898438 C 26.148438 -7.898438 14.621094 -19.957031 14.621094 -37.246094 C 14.621094 -54.429688 26.46875 -66.597656 43.011719 -66.597656 C 55.605469 -66.597656 66.277344 -59.445312 69.476562 -48.558594 L 79.191406 -48.558594 C 75.882812 -64.570312 60.726562 -75.773438 42.796875 -75.773438 C 21.023438 -75.773438 5.121094 -59.445312 5.121094 -37.246094 C 5.121094 -15.046875 21.023438 1.28125 43.011719 1.28125 C 64.570312 1.28125 79.9375 -14.515625 80.363281 -37.035156 Z M 40.34375 -37.035156 "/></g></g></g><g fill="#fafafa" fill-opacity="1"><g transform="translate(935.407277, 596.33963)"><g><path d="M 62.328125 0 L 72.464844 0 L 41.089844 -74.707031 L 32.335938 -74.707031 L 1.8125 0 L 11.738281 0 L 18.996094 -17.824219 L 54.964844 -17.824219 Z M 36.820312 -61.792969 L 51.441406 -26.46875 L 22.519531 -26.46875 Z M 36.820312 -61.792969 "/></g></g></g><g fill="#fafafa" fill-opacity="1"><g transform="translate(1032.952408, 596.33963)"><g><path d="M 19.53125 -8.75 L 19.53125 -74.707031 L 10.140625 -74.707031 L 10.140625 0 L 52.296875 0 L 52.296875 -8.75 Z M 19.53125 -8.75 "/></g></g></g><g clip-path="url(#441cda52c0)"><path fill="#ff0000" d="M 645.386719 487.789062 L 1114.769531 487.789062 L 1114.769531 503.800781 L 645.386719 503.800781 Z M 645.386719 487.789062 " fill-opacity="1" fill-rule="nonzero"/></g><g clip-path="url(#125ee35f3a)"><path fill="#006600" d="M 324.75 487.789062 L 645.570312 487.789062 L 645.570312 503.800781 L 324.75 503.800781 Z M 324.75 487.789062 " fill-opacity="1" fill-rule="nonzero"/></g><g clip-path="url(#f805847d8d)"><g clip-path="url(#c6982dbffc)"><path fill="#ff0000" d="M 662.539062 503.796875 L 628.070312 503.796875 L 628.070312 487.796875 L 662.539062 487.796875 Z M 662.539062 503.796875 " fill-opacity="1" fill-rule="nonzero"/></g></g><g clip-path="url(#da581ee90e)"><g clip-path="url(#258ecf1bf8)"><path fill="#006600" d="M 338.429688 503.789062 L 310.9375 503.789062 L 310.9375 488.195312 L 338.429688 488.195312 Z M 338.429688 503.789062 " fill-opacity="1" fill-rule="nonzero"/></g></g></svg>