<svg xmlns="http://www.w3.org/2000/svg" width="360" height="74.582" viewBox="0 0 360 74.582">
  <g id="Grupo_629" data-name="Grupo 629" transform="translate(3464 -9)">
    <path id="Caminho_3660" data-name="Caminho 3660" d="M69.274,42.133l.006-.036-.006-.035v.071Z" transform="translate(-3464 9)" fill="#00ae8d"/>
    <path id="Caminho_3661" data-name="Caminho 3661" d="M83.03,26.261V14.079a2.02,2.02,0,0,0-.611-1.483,2.186,2.186,0,0,0-1.626-.589,2.035,2.035,0,0,0-1.555.613,2.08,2.08,0,0,0-.566,1.483l.024-.047V36.032a4.614,4.614,0,0,1-.259,1.531,3.557,3.557,0,0,1-.777,1.271,3.714,3.714,0,0,1-1.272.872,3.9,3.9,0,0,1-1.555.329H71.207a1.8,1.8,0,0,0-1.414.614A2.14,2.14,0,0,0,69.28,42.1a2.046,2.046,0,0,0,.513,1.426,1.848,1.848,0,0,0,1.414.564h3.626a8.006,8.006,0,0,0,5.841-2.379,8.108,8.108,0,0,0,1.745-2.567,7.874,7.874,0,0,0,.635-3.132V26.384l-.024-.123Z" transform="translate(-3464 9)" fill="#00ae8d"/>
    <path id="Caminho_3662" data-name="Caminho 3662" d="M145.936,41.873a2,2,0,0,1-.52,1.437,1.789,1.789,0,0,1-1.272.589l-9.233.33a7.259,7.259,0,0,1-2.85-.565,7.611,7.611,0,0,1-2.355-1.555,7.374,7.374,0,0,1-1.624-2.332,6.98,6.98,0,0,1-.589-2.9,7.569,7.569,0,0,1,.4-2.4,7.107,7.107,0,0,1,1.108-2.1,7.306,7.306,0,0,1,1.7-1.6,7.117,7.117,0,0,1,2.143-.99l4.383-1.154c.094-.022.21-.046.352-.069a2.542,2.542,0,0,1,.353-.047,1.577,1.577,0,0,1,.708.163,1.886,1.886,0,0,1,.588.448,2.7,2.7,0,0,1,.423.659,1.868,1.868,0,0,1,.166.8,1.97,1.97,0,0,1-.377,1.248,1.926,1.926,0,0,1-1.06.683l-4.57,1.131a2.853,2.853,0,0,0-1.766,1.107,3.5,3.5,0,0,0-.566,2.049,3.32,3.32,0,0,0,.26,1.272,3.533,3.533,0,0,0,.683,1.06,3.316,3.316,0,0,0,1.035.73,3.1,3.1,0,0,0,1.319.283l9.234-.33a1.822,1.822,0,0,1,1.46.565,2.08,2.08,0,0,1,.567,1.484Zm-4.783-13.661a5.018,5.018,0,0,0-.26-1.6,3.328,3.328,0,0,0-.824-1.318,4.1,4.1,0,0,0-1.294-.9,3.93,3.93,0,0,0-1.579-.329h-5.558a1.843,1.843,0,0,1-1.414-.567,2.047,2.047,0,0,1-.518-1.46,2.155,2.155,0,0,1,.518-1.484,1.806,1.806,0,0,1,1.414-.612H137.2a8.236,8.236,0,0,1,7.678,5.017,7.925,7.925,0,0,1,.636,3.156v8.291a1.92,1.92,0,0,1-.588,1.46,2.191,2.191,0,0,1-1.577.567,2.092,2.092,0,0,1-1.554-.567,1.983,1.983,0,0,1-.567-1.46V28.117l-.071.095Z" transform="translate(-3464 9)" fill="#00ae8d"/>
    <path id="Caminho_3663" data-name="Caminho 3663" d="M152.843,26.375a6.056,6.056,0,0,1,.542-2.52,6.882,6.882,0,0,1,1.412-2.049,6.31,6.31,0,0,1,4.593-1.885h.449l3.767.094a1.961,1.961,0,0,1,1.461.612,2.083,2.083,0,0,1,.495,1.437,2.3,2.3,0,0,1-.141.8,2.013,2.013,0,0,1-.376.659,1.523,1.523,0,0,1-.636.425,2,2,0,0,1-.85.118l-4.169-.094a2,2,0,0,0-.917.14,2.213,2.213,0,0,0-.731.5,1.853,1.853,0,0,0-.447.753,2.9,2.9,0,0,0-.143.92V42.533a1.913,1.913,0,0,1-.587,1.46,2.2,2.2,0,0,1-1.578.565,2.1,2.1,0,0,1-1.555-.565,1.985,1.985,0,0,1-.567-1.46V26.282l-.022.093Z" transform="translate(-3464 9)" fill="#00ae8d"/>
    <path id="Caminho_3664" data-name="Caminho 3664" d="M167.474,22.111a2.142,2.142,0,0,1,.52-1.484,1.8,1.8,0,0,1,1.413-.612h2.942V14.079a2.08,2.08,0,0,1,.566-1.483,2.033,2.033,0,0,1,1.555-.612,2.178,2.178,0,0,1,1.624.588,2,2,0,0,1,.589,1.484V37.94a2.867,2.867,0,0,0,.142.918,1.856,1.856,0,0,0,.472.731,2.188,2.188,0,0,0,.776.494,2.6,2.6,0,0,0,.941.189h.19l3.109-.237a2.788,2.788,0,0,1,1.037.119,1.549,1.549,0,0,1,.683.425,2.142,2.142,0,0,1,.4.682,2.429,2.429,0,0,1,.141.825,2.148,2.148,0,0,1-.447,1.342,1.859,1.859,0,0,1-1.438.659l-3.25.236h-.426a6.836,6.836,0,0,1-2.637-.5,6.3,6.3,0,0,1-2.072-1.39,6.872,6.872,0,0,1-1.413-2.049,6.021,6.021,0,0,1-.518-2.521V24.02h-2.945a1.846,1.846,0,0,1-1.414-.567,2.051,2.051,0,0,1-.517-1.46l-.024.118Zm10.647.047a2.155,2.155,0,0,1,.518-1.484,1.806,1.806,0,0,1,1.414-.611H182.6a1.786,1.786,0,0,1,1.414.588,2.179,2.179,0,0,1,.541,1.484,2.016,2.016,0,0,1-.541,1.436,1.843,1.843,0,0,1-1.414.565h-2.543a1.843,1.843,0,0,1-1.414-.565,2.049,2.049,0,0,1-.518-1.46v.047Z" transform="translate(-3464 9)" fill="#00ae8d"/>
    <path id="Caminho_3665" data-name="Caminho 3665" d="M189.878,23.219a2.081,2.081,0,0,1,.567-1.484A2.035,2.035,0,0,1,192,21.121a2.17,2.17,0,0,1,1.6.591,2.019,2.019,0,0,1,.61,1.483V42.58a1.913,1.913,0,0,1-.588,1.46,2.192,2.192,0,0,1-1.577.565,2.093,2.093,0,0,1-1.555-.565,1.986,1.986,0,0,1-.566-1.46V23.195l-.048.024Zm.048-9.187a2.08,2.08,0,0,1,.566-1.483,2.03,2.03,0,0,1,1.555-.612,2.167,2.167,0,0,1,1.6.588,2.026,2.026,0,0,1,.611,1.484V16.27a1.867,1.867,0,0,1-.589,1.436,2.193,2.193,0,0,1-1.577.565,2.093,2.093,0,0,1-1.554-.565,1.981,1.981,0,0,1-.567-1.46V13.985l-.047.047Z" transform="translate(-3464 9)" fill="#00ae8d"/>
    <path id="Caminho_3666" data-name="Caminho 3666" d="M202.177,27.127a2.079,2.079,0,0,1,.567-1.483,2.036,2.036,0,0,1,1.555-.612,2.178,2.178,0,0,1,1.6.588,2.033,2.033,0,0,1,.61,1.485V42.58a1.91,1.91,0,0,1-.589,1.46,2.186,2.186,0,0,1-1.576.565,2.1,2.1,0,0,1-1.555-.565,1.982,1.982,0,0,1-.566-1.46V27.1l-.048.022Zm14.747,1.909a6.619,6.619,0,0,0-.33-2.095,4.1,4.1,0,0,0-.991-1.626,4.96,4.96,0,0,0-1.6-1.06,5.068,5.068,0,0,0-2-.4h-1.2a5.878,5.878,0,0,1-.636.023l-3.7.142a1.585,1.585,0,0,1-.777-.118,2.072,2.072,0,0,1-.611-.425,2.184,2.184,0,0,1-.449-.659,2.013,2.013,0,0,1-.165-.848A2.084,2.084,0,0,1,205,20.556a1.759,1.759,0,0,1,1.272-.635l4.169-.189a7.014,7.014,0,0,1,.708-.048h1.035a8.78,8.78,0,0,1,3.629.731,9.238,9.238,0,0,1,2.9,2,9.36,9.36,0,0,1,1.933,2.968,9.249,9.249,0,0,1,.707,3.6V42.533a1.913,1.913,0,0,1-.591,1.46,2.267,2.267,0,0,1-1.623.565,2.1,2.1,0,0,1-1.555-.565,1.985,1.985,0,0,1-.567-1.46V28.989l-.092.047Z" transform="translate(-3464 9)" fill="#00ae8d"/>
    <g id="Grupo_627" data-name="Grupo 627">
      <path id="Caminho_3667" data-name="Caminho 3667" d="M269.3,27.928a2.107,2.107,0,0,0-1.437.473,1.986,1.986,0,0,0-.66,1.13l-.541,2.569-.025.163-.023.142v.164a1.9,1.9,0,0,0,.567,1.389,2.09,2.09,0,0,0,1.553.567,2.16,2.16,0,0,0,1.46-.449,2.031,2.031,0,0,0,.685-1.13l.611-2.5.025-.165V30a2.03,2.03,0,0,0-.613-1.484,2.17,2.17,0,0,0-1.6-.59" transform="translate(-3464 9)" fill="#ccc"/>
      <path id="Caminho_3668" data-name="Caminho 3668" d="M260.441,28.99a2.026,2.026,0,0,0-1.531.611,2.088,2.088,0,0,0-.566,1.484,2.16,2.16,0,0,0,.471,1.343l9.256,11.447a1.845,1.845,0,0,0,.73.566,2.256,2.256,0,0,0,.874.187,2.2,2.2,0,0,0,1.577-.564,1.913,1.913,0,0,0,.588-1.459,1.754,1.754,0,0,0-.14-.755,3.383,3.383,0,0,0-.33-.66l-9.281-11.424a2.02,2.02,0,0,0-1.648-.776" transform="translate(-3464 9)" fill="#ccc"/>
      <path id="Caminho_3669" data-name="Caminho 3669" d="M258.319,11.89h-.494a7.89,7.89,0,0,0-3.131.61,7.434,7.434,0,0,0-2.452,1.673,8.07,8.07,0,0,0-1.623,2.473,7.674,7.674,0,0,0-.613,3.014,7.6,7.6,0,0,0,.165,1.675,8.461,8.461,0,0,0,.376,1.293l.8,1.485a2.236,2.236,0,0,0,.682.824,1.923,1.923,0,0,0,1.2.354,2.082,2.082,0,0,0,1.482-.564,1.866,1.866,0,0,0,.589-1.439,2.455,2.455,0,0,0-.046-.4,1.851,1.851,0,0,0-.141-.446l-.543-1.156a3.111,3.111,0,0,1-.282-.778,4.031,4.031,0,0,1-.071-.777,3.615,3.615,0,0,1,.284-1.412,3.523,3.523,0,0,1,.778-1.153,3.674,3.674,0,0,1,1.129-.779A3.425,3.425,0,0,1,257.8,16.1h.493a3.621,3.621,0,0,1,1.415.282,3.538,3.538,0,0,1,1.152.779,3.46,3.46,0,0,1,.777,1.153,3.564,3.564,0,0,1,.285,1.412,3.125,3.125,0,0,1-.685,2.122c-1.157,1.317-10.08,6.712-10.08,6.712a9.145,9.145,0,0,0-2.731,3.108,9.29,9.29,0,0,0-.213,7.586A9.033,9.033,0,0,0,253,44.064a8.924,8.924,0,0,0,3.58.706,10.084,10.084,0,0,0,1.388-.1c.519-.07,1.036-.164,1.579-.281a10.847,10.847,0,0,0,1.556-.448,6.311,6.311,0,0,0,1.318-.659,2.3,2.3,0,0,0,.777-.8,2.2,2.2,0,0,0,.3-1.015,2.051,2.051,0,0,0-2.1-2.071,2,2,0,0,0-.965.236,7.14,7.14,0,0,1-1.815.777,7.53,7.53,0,0,1-1.978.26,4.692,4.692,0,0,1-1.907-.377,5.066,5.066,0,0,1-1.556-1.062,4.2,4.2,0,0,1-.989-1.554,5.582,5.582,0,0,1-.331-1.907,5.237,5.237,0,0,1,.424-2.191,4.428,4.428,0,0,1,1.413-1.649l8.156-5.329.032-.028a9.431,9.431,0,0,0,1.234-.768,6.636,6.636,0,0,0,1.6-1.648,8.067,8.067,0,0,0,.99-2.073,8.723,8.723,0,0,0,.47-2.45,7.532,7.532,0,0,0-.614-2.991,7.882,7.882,0,0,0-4.145-4.146,7.857,7.857,0,0,0-3.11-.61" transform="translate(-3464 9)" fill="#ccc"/>
    </g>
    <path id="Caminho_3670" data-name="Caminho 3670" d="M299.053,19.379a11.818,11.818,0,0,0-6.1-6.1,11.133,11.133,0,0,0-4.547-.919H279.76a1.714,1.714,0,0,0-1.387.612,2.251,2.251,0,0,0-.495,1.483,2.141,2.141,0,0,0,.495,1.461,1.751,1.751,0,0,0,1.387.567h8.646a7.31,7.31,0,0,1,5.183,2.119,6.773,6.773,0,0,1,1.507,2.332,7.659,7.659,0,0,1,.517,2.85v.631l-.046,8.3a8.1,8.1,0,0,1-.5,2.826,6.367,6.367,0,0,1-1.482,2.331,7.778,7.778,0,0,1-2.331,1.6,6.979,6.979,0,0,1-2.874.589h-8.693a1.724,1.724,0,0,0-1.391.614,2.261,2.261,0,0,0-.494,1.483,2.161,2.161,0,0,0,.494,1.461,1.768,1.768,0,0,0,1.391.565h8.693a11.119,11.119,0,0,0,4.544-.919,11.782,11.782,0,0,0,3.629-2.474,11.332,11.332,0,0,0,2.448-3.627,11.137,11.137,0,0,0,.895-4.38l.071-7.938V23.831a10.909,10.909,0,0,0-.918-4.452Z" transform="translate(-3464 9)" fill="#00ae8d"/>
    <path id="Caminho_3671" data-name="Caminho 3671" d="M281.246,38.6a2.187,2.187,0,0,0,1.577-.565,1.864,1.864,0,0,0,.59-1.437l.047-.047V19.944a2.024,2.024,0,0,0-.612-1.483,2.168,2.168,0,0,0-1.6-.589,2.037,2.037,0,0,0-1.555.612,2.083,2.083,0,0,0-.567,1.484V36.573a1.989,1.989,0,0,0,.567,1.461,2.1,2.1,0,0,0,1.555.565Z" transform="translate(-3464 9)" fill="#00ae8d"/>
    <path id="Caminho_3672" data-name="Caminho 3672" d="M307.3,23.219a2.084,2.084,0,0,1,.565-1.484,2.038,2.038,0,0,1,1.555-.614,2.167,2.167,0,0,1,1.6.591,2.013,2.013,0,0,1,.612,1.483V42.58a1.92,1.92,0,0,1-.588,1.46,2.193,2.193,0,0,1-1.579.565,2.1,2.1,0,0,1-1.555-.565,1.993,1.993,0,0,1-.565-1.46V23.195l-.047.024Zm.047-9.187a2.087,2.087,0,0,1,.565-1.483,2.033,2.033,0,0,1,1.555-.612,2.164,2.164,0,0,1,1.6.588,2.023,2.023,0,0,1,.612,1.484V16.27a1.863,1.863,0,0,1-.589,1.436,2.19,2.19,0,0,1-1.578.565,2.1,2.1,0,0,1-1.554-.565,1.988,1.988,0,0,1-.565-1.46V13.985l-.048.047Z" transform="translate(-3464 9)" fill="#00ae8d"/>
    <path id="Caminho_3673" data-name="Caminho 3673" d="M336.233,41.873a2,2,0,0,1-.52,1.437,1.789,1.789,0,0,1-1.271.589l-9.233.33a7.267,7.267,0,0,1-2.851-.565A7.623,7.623,0,0,1,320,42.109a7.374,7.374,0,0,1-1.624-2.332,7,7,0,0,1-.589-2.9,7.57,7.57,0,0,1,.4-2.4,7.061,7.061,0,0,1,1.108-2.1,7.247,7.247,0,0,1,1.7-1.6,7.106,7.106,0,0,1,2.143-.99l4.382-1.154c.1-.022.211-.046.353-.069a2.53,2.53,0,0,1,.352-.047,1.574,1.574,0,0,1,.708.163,1.879,1.879,0,0,1,.589.448,2.73,2.73,0,0,1,.423.659,1.881,1.881,0,0,1,.165.8,1.963,1.963,0,0,1-.377,1.248,1.923,1.923,0,0,1-1.059.683l-4.57,1.131a2.853,2.853,0,0,0-1.767,1.107,3.5,3.5,0,0,0-.565,2.049,3.32,3.32,0,0,0,.26,1.272,3.529,3.529,0,0,0,.682,1.06,3.316,3.316,0,0,0,1.035.73,3.107,3.107,0,0,0,1.32.283l9.233-.33a1.821,1.821,0,0,1,1.46.565,2.08,2.08,0,0,1,.567,1.484ZM331.45,28.212a4.991,4.991,0,0,0-.26-1.6,3.317,3.317,0,0,0-.824-1.318,4.094,4.094,0,0,0-1.293-.9,3.933,3.933,0,0,0-1.579-.329h-5.559a1.843,1.843,0,0,1-1.413-.567A2.048,2.048,0,0,1,320,22.04a2.155,2.155,0,0,1,.519-1.484,1.8,1.8,0,0,1,1.413-.612h5.559a8.236,8.236,0,0,1,7.678,5.017,7.943,7.943,0,0,1,.636,3.156v8.291a1.917,1.917,0,0,1-.589,1.46,2.191,2.191,0,0,1-1.577.567,2.094,2.094,0,0,1-1.554-.567,1.983,1.983,0,0,1-.567-1.46V28.117l-.071.095Z" transform="translate(-3464 9)" fill="#00ae8d"/>
    <path id="Caminho_3674" data-name="Caminho 3674" d="M243.663,34.807a7.186,7.186,0,0,0-1.059-1.978,6.722,6.722,0,0,0-1.626-1.531,7.091,7.091,0,0,0-2.19-.943c-.1-.024-.21-.047-.33-.071l-5.146-.637,0,.012-.079-.034a2.606,2.606,0,0,1-1.956-2.756,3.547,3.547,0,0,1,.166-1.131A2.312,2.312,0,0,1,232,24.82a2.749,2.749,0,0,1,.919-.613,3.052,3.052,0,0,1,1.132-.21h6.335a1.845,1.845,0,0,0,1.413-.567,2.015,2.015,0,0,0,.541-1.437,2.179,2.179,0,0,0-.541-1.484,1.785,1.785,0,0,0-1.413-.588V19.9h-6.335a6.941,6.941,0,0,0-2.852.565,7.3,7.3,0,0,0-2.214,1.508,6.76,6.76,0,0,0-1.483,2.213,6.777,6.777,0,0,0-.117,5.019,8.05,8.05,0,0,0,1.154,2.189,6.428,6.428,0,0,0,1.767,1.626,4.216,4.216,0,0,0,1.727.558l-.013.04,5.656.7a2.613,2.613,0,0,1,2.05,2.756,3.553,3.553,0,0,1-.188,1.131,2.36,2.36,0,0,1-.565.919,2.756,2.756,0,0,1-.919.612,3.016,3.016,0,0,1-1.13.213H228.9a1.719,1.719,0,0,0-1.391.611,2.257,2.257,0,0,0-.495,1.484v.024a2.151,2.151,0,0,0,.495,1.461,1.762,1.762,0,0,0,1.391.564h8.031a6.9,6.9,0,0,0,2.826-.564,7.187,7.187,0,0,0,3.722-3.722,6.919,6.919,0,0,0,.187-4.994Z" transform="translate(-3464 9)" fill="#00ae8d"/>
    <path id="Caminho_3675" data-name="Caminho 3675" d="M357.484,34.807a7.189,7.189,0,0,0-1.06-1.978A6.718,6.718,0,0,0,354.8,31.3a7.092,7.092,0,0,0-2.19-.943c-.1-.024-.211-.047-.33-.071l-5.146-.637,0,.012-.08-.034a2.608,2.608,0,0,1-1.956-2.756,3.575,3.575,0,0,1,.166-1.131,2.317,2.317,0,0,1,.566-.918,2.725,2.725,0,0,1,.918-.613,3.043,3.043,0,0,1,1.131-.21h6.335a1.847,1.847,0,0,0,1.414-.567,2.015,2.015,0,0,0,.542-1.437,2.18,2.18,0,0,0-.542-1.484,1.787,1.787,0,0,0-1.414-.588V19.9h-6.335a6.939,6.939,0,0,0-2.851.565,7.291,7.291,0,0,0-2.214,1.508,6.76,6.76,0,0,0-1.483,2.213,6.771,6.771,0,0,0-.118,5.019,8.08,8.08,0,0,0,1.155,2.189,6.424,6.424,0,0,0,1.766,1.626,4.221,4.221,0,0,0,1.727.558l-.012.04,5.655.7a2.614,2.614,0,0,1,2.051,2.756,3.581,3.581,0,0,1-.188,1.131,2.339,2.339,0,0,1-.566.919,2.746,2.746,0,0,1-.919.612,3.015,3.015,0,0,1-1.129.213h-8.032a1.717,1.717,0,0,0-1.39.611,2.252,2.252,0,0,0-.495,1.484v.024a2.146,2.146,0,0,0,.495,1.461,1.76,1.76,0,0,0,1.39.564h8.032a6.892,6.892,0,0,0,2.825-.564A7.178,7.178,0,0,0,357.3,39.8a6.927,6.927,0,0,0,.188-4.994Z" transform="translate(-3464 9)" fill="#00ae8d"/>
    <path id="Caminho_3676" data-name="Caminho 3676" d="M120.911,14.809a4.443,4.443,0,0,0-2.5-2.5,5.12,5.12,0,0,0-1.933-.352,4.28,4.28,0,0,0-4.452,2.944L106.039,31.77,100.048,14.9A4.28,4.28,0,0,0,95.6,11.96a5.12,5.12,0,0,0-1.933.352,4.43,4.43,0,0,0-2.494,2.5,4.906,4.906,0,0,0-.355,1.86V42.556a1.988,1.988,0,0,0,.565,1.46,2.1,2.1,0,0,0,1.555.565,2.335,2.335,0,0,0,1.554-.565,1.822,1.822,0,0,0,.662-1.46V16.669a.561.561,0,0,1,.635-.635.522.522,0,0,1,.518.33l7.723,22a1.559,1.559,0,0,0,.13.414c.039.08.1.139.149.213a1.967,1.967,0,0,0,.276.389l.023.034.037.024a1.738,1.738,0,0,0,.242.236,2.088,2.088,0,0,0,.357.172l.024.016.03.011a1.94,1.94,0,0,0,.265.084,2.042,2.042,0,0,0,.377.058l.078.011.025,0,.026,0,.079-.011a2.069,2.069,0,0,0,.377-.058,1.972,1.972,0,0,0,.264-.084l.031-.011.024-.016a2.07,2.07,0,0,0,.355-.172,1.692,1.692,0,0,0,.243-.236l.037-.024.024-.034a1.96,1.96,0,0,0,.274-.389,2.466,2.466,0,0,0,.15-.213,1.559,1.559,0,0,0,.13-.414l7.724-22a.519.519,0,0,1,.517-.33.561.561,0,0,1,.636.635V42.556a1.823,1.823,0,0,0,.66,1.46,2.338,2.338,0,0,0,1.556.565,2.1,2.1,0,0,0,1.555-.565,1.992,1.992,0,0,0,.565-1.46V16.669a4.925,4.925,0,0,0-.355-1.86Z" transform="translate(-3464 9)" fill="#00ae8d"/>
    <g id="Grupo_626" data-name="Grupo 626">
      <path id="Caminho_3677" data-name="Caminho 3677" d="M165.958,66.188l-.83.032a.6.6,0,0,0-.448.2.727.727,0,0,0-.167.491.8.8,0,0,0,.048.262.656.656,0,0,0,.125.219.591.591,0,0,0,.2.149.455.455,0,0,0,.215.051l.053,0,.734-.032a1.639,1.639,0,0,1,.7.157,1.992,1.992,0,0,1,.567.419,1.646,1.646,0,0,1,.363.608,2.214,2.214,0,0,1,.119.725V71.09a2.244,2.244,0,0,1-.134.757,1.943,1.943,0,0,1-.4.655,2.182,2.182,0,0,1-.608.458,1.569,1.569,0,0,1-.726.174l-1.745-.143h-.1a.567.567,0,0,0-.261.056.513.513,0,0,0-.188.15.938.938,0,0,0-.121.22.793.793,0,0,0-.047.269.654.654,0,0,0,.152.451.638.638,0,0,0,.4.213l1.69.141.1.007.079.009h.063a2.944,2.944,0,0,0,1.279-.283,3.548,3.548,0,0,0,1.042-.76,3.6,3.6,0,0,0,.71-1.087,3.23,3.23,0,0,0,.261-1.279V69.462a3.185,3.185,0,0,0-.245-1.245,3.412,3.412,0,0,0-.671-1.04,3.34,3.34,0,0,0-.987-.72,2.766,2.766,0,0,0-1.23-.269m-2.684-2.579a.681.681,0,0,0-.521.2.689.689,0,0,0-.188.495l.014-.015V72a.659.659,0,0,0,.19.489.7.7,0,0,0,.52.19.732.732,0,0,0,.529-.19.62.62,0,0,0,.2-.48V64.3a.672.672,0,0,0-.206-.5.719.719,0,0,0-.536-.2" transform="translate(-3464 9)" fill="#ccc"/>
      <path id="Caminho_3678" data-name="Caminho 3678" d="M171.4,70.576a.685.685,0,0,0-.52.206.705.705,0,0,0-.189.5,3.068,3.068,0,0,0,.245,1.245,2.949,2.949,0,0,0,.686.986,3.182,3.182,0,0,0,1.027.65,3.493,3.493,0,0,0,1.31.236h1.753a.644.644,0,0,0,.449-.189.63.63,0,0,0,.2-.482.679.679,0,0,0-.2-.5.614.614,0,0,0-.451-.2l.023-.009h-1.752a2.118,2.118,0,0,1-.749-.125,1.676,1.676,0,0,1-.592-.364,1.426,1.426,0,0,1-.371-.553,2.017,2.017,0,0,1-.118-.709.67.67,0,0,0-.2-.5.738.738,0,0,0-.545-.2m2.709-4.474a3.291,3.291,0,0,0-2.383.972,3.738,3.738,0,0,0-.736,1.04,2.936,2.936,0,0,0-.283,1.278.647.647,0,0,0,.2.505.721.721,0,0,0,.52.19.729.729,0,0,0,.544-.2.668.668,0,0,0,.2-.5,1.91,1.91,0,0,1,.141-.733,1.707,1.707,0,0,1,.411-.6,2.112,2.112,0,0,1,.631-.41,1.849,1.849,0,0,1,.759-.152,2.012,2.012,0,0,1,.827.159,1.746,1.746,0,0,1,.592.426,1.959,1.959,0,0,1,.388.639,2.105,2.105,0,0,1,.142.764v.168h-3.023a.6.6,0,0,0-.474.205.717.717,0,0,0-.172.495l.013-.029a.7.7,0,0,0,.173.489.627.627,0,0,0,.475.188h3.781a.751.751,0,0,0,.267-.047.606.606,0,0,0,.224-.141.726.726,0,0,0,.148-.221.642.642,0,0,0,.056-.268v-.863a3.242,3.242,0,0,0-.26-1.292,3.467,3.467,0,0,0-.711-1.066,3.413,3.413,0,0,0-1.05-.734,3.354,3.354,0,0,0-1.4-.268" transform="translate(-3464 9)" fill="#ccc"/>
      <path id="Caminho_3679" data-name="Caminho 3679" d="M189.029,67v0m1.5-.686h-.854a.608.608,0,0,0-.474.2.725.725,0,0,0-.172.491.683.683,0,0,0,.172.482.618.618,0,0,0,.474.189h.854a.608.608,0,0,0,.471-.189.668.668,0,0,0,.182-.482.721.721,0,0,0-.182-.5.6.6,0,0,0-.471-.2m-2.724-2.705a.681.681,0,0,0-.521.2.7.7,0,0,0-.19.495V66.3h-.985a.606.606,0,0,0-.475.206.73.73,0,0,0-.173.5l.009-.038a.685.685,0,0,0,.173.489.61.61,0,0,0,.473.19h.987v4.641a2.07,2.07,0,0,0,.172.845,2.368,2.368,0,0,0,.474.687,2.134,2.134,0,0,0,.7.464,2.306,2.306,0,0,0,.883.166h.142l1.091-.079a.626.626,0,0,0,.482-.221.726.726,0,0,0,.149-.449.837.837,0,0,0-.048-.278.7.7,0,0,0-.134-.228.53.53,0,0,0-.229-.142A.9.9,0,0,0,190.5,73c-.021,0-.041,0-.063,0l-1.042.079h-.063a.835.835,0,0,1-.314-.064.738.738,0,0,1-.262-.163.647.647,0,0,1-.158-.245,1.031,1.031,0,0,1-.046-.309v-8a.68.68,0,0,0-.2-.5.733.733,0,0,0-.545-.2" transform="translate(-3464 9)" fill="#ccc"/>
      <path id="Caminho_3680" data-name="Caminho 3680" d="M196.917,66.141a.677.677,0,0,0-.716.695l.007.117.023.1,1.6,6.306a1.4,1.4,0,0,0,.215.482,1.555,1.555,0,0,0,.362.379,2.159,2.159,0,0,0,.466.252,1.536,1.536,0,0,0,.543.094,1.626,1.626,0,0,0,1-.292,1.753,1.753,0,0,0,.6-.9l.426-1.39.039-.142.017-.118.016-.008a.69.69,0,0,0-.19-.5.681.681,0,0,0-.521-.2.655.655,0,0,0-.442.144.885.885,0,0,0-.244.37l-.426,1.42a.273.273,0,0,1-.529,0l-1.545-6.337a.7.7,0,0,0-.706-.482m9.717-.014a.733.733,0,0,0-.466.14.678.678,0,0,0-.237.387l-1.53,6.29a.256.256,0,0,1-.275.206.264.264,0,0,1-.254-.206L202.6,68.706l-.213-1.957a.643.643,0,0,0-.236-.451.769.769,0,0,0-.507-.171.664.664,0,0,0-.71.678v.062l.009.07.007.072.231,2.02,1.34,4.334a1.851,1.851,0,0,0,.238.482,1.505,1.505,0,0,0,.363.379,2.072,2.072,0,0,0,.457.252,1.533,1.533,0,0,0,.546.094,1.682,1.682,0,0,0,.567-.094,1.962,1.962,0,0,0,.473-.245,1.483,1.483,0,0,0,.361-.379,1.291,1.291,0,0,0,.215-.482l1.6-6.305.023-.119.007-.1V66.82a.675.675,0,0,0-.205-.5.721.721,0,0,0-.536-.2" transform="translate(-3464 9)" fill="#ccc"/>
      <path id="Caminho_3681" data-name="Caminho 3681" d="M228.458,66.2a2.78,2.78,0,0,0-1.231.268,3.247,3.247,0,0,0-.971.719,3.6,3.6,0,0,0-.664,1.043,3.224,3.224,0,0,0-.245,1.247v1.554a3.132,3.132,0,0,0,.27,1.287,3.73,3.73,0,0,0,.732,1.089,3.685,3.685,0,0,0,1.066.758,3.083,3.083,0,0,0,1.328.283h.282l2.305-.094a.583.583,0,0,0,.458-.213.727.727,0,0,0,.166-.474l.031-.015a.622.622,0,0,0-.056-.269.784.784,0,0,0-.141-.22.589.589,0,0,0-.211-.15.547.547,0,0,0-.227-.05l-.051,0-2.556.1a1.76,1.76,0,0,1-.749-.166,2.087,2.087,0,0,1-.634-.45,1.958,1.958,0,0,1-.409-.647,2.109,2.109,0,0,1-.143-.774V69.471a2.307,2.307,0,0,1,.116-.733,1.791,1.791,0,0,1,.357-.607,1.72,1.72,0,0,1,.569-.412,1.643,1.643,0,0,1,.695-.15h.063l.655.033a.638.638,0,0,0,.646-.681.679.679,0,0,0-.18-.48.654.654,0,0,0-.475-.2l-.8-.034Zm2.643-2.6a.68.68,0,0,0-.527.205.688.688,0,0,0-.192.5l.016-.008v7.545a.661.661,0,0,0,.192.49.706.706,0,0,0,.528.189.74.74,0,0,0,.529-.189.646.646,0,0,0,.2-.49V64.294a.683.683,0,0,0-.2-.5.727.727,0,0,0-.538-.2" transform="translate(-3464 9)" fill="#ccc"/>
      <path id="Caminho_3682" data-name="Caminho 3682" d="M241.128,67.521v0m1.659-.685h-1.009a.6.6,0,0,0-.473.195.72.72,0,0,0-.177.494.678.678,0,0,0,.177.486.609.609,0,0,0,.473.19h1.009a.616.616,0,0,0,.473-.19.67.67,0,0,0,.182-.482.734.734,0,0,0-.182-.5.6.6,0,0,0-.473-.195m-1.255-3.166h-.126a2.114,2.114,0,0,0-.83.166,2.423,2.423,0,0,0-.708.466,2.088,2.088,0,0,0-.5.687,2.04,2.04,0,0,0-.181.852v.986H238.2a.6.6,0,0,0-.473.2.717.717,0,0,0-.174.5.68.68,0,0,0,.174.49.616.616,0,0,0,.473.19l1.012-.008v5.635a.673.673,0,0,0,.709.695.717.717,0,0,0,.528-.205.663.663,0,0,0,.2-.49V65.834a.805.805,0,0,1,.057-.309.992.992,0,0,1,.149-.252.681.681,0,0,1,.237-.166.837.837,0,0,1,.317-.062h.031l1.137.062h.038a.6.6,0,0,0,.467-.191.7.7,0,0,0,.19-.5.684.684,0,0,0-.182-.48.619.619,0,0,0-.427-.206l-1.128-.063Z" transform="translate(-3464 9)" fill="#ccc"/>
      <path id="Caminho_3683" data-name="Caminho 3683" d="M255.656,66.267h-.15a2.193,2.193,0,0,0-.852.165,2.168,2.168,0,0,0-.686.467,2.245,2.245,0,0,0-.473.688,2.009,2.009,0,0,0-.184.843l.007-.031v5.446a.67.67,0,0,0,.192.489.7.7,0,0,0,.52.189.739.739,0,0,0,.529-.189.647.647,0,0,0,.2-.489V68.4a.978.978,0,0,1,.047-.307.6.6,0,0,1,.152-.253.741.741,0,0,1,.245-.167.687.687,0,0,1,.257-.048h.05l1.4.032a.534.534,0,0,0,.056,0,.669.669,0,0,0,.229-.041.492.492,0,0,0,.21-.143.591.591,0,0,0,.128-.222.749.749,0,0,0,.048-.268.694.694,0,0,0-.167-.481.661.661,0,0,0-.487-.206l-1.264-.031Z" transform="translate(-3464 9)" fill="#ccc"/>
      <path id="Caminho_3684" data-name="Caminho 3684" d="M265.953,69.148l-.12.017-.117.023-1.469.388a2.327,2.327,0,0,0-.717.33,2.418,2.418,0,0,0-.568.536,2.393,2.393,0,0,0-.372.7,2.582,2.582,0,0,0-.134.8,2.364,2.364,0,0,0,.2.971,2.561,2.561,0,0,0,.545.783,2.652,2.652,0,0,0,.789.52,2.432,2.432,0,0,0,.955.188l3.1-.11a.585.585,0,0,0,.423-.2.652.652,0,0,0,.178-.48h.028a.7.7,0,0,0-.186-.5.61.61,0,0,0-.461-.192h-.03l-3.094.112a1.037,1.037,0,0,1-.442-.094,1.119,1.119,0,0,1-.347-.244,1.3,1.3,0,0,1-.231-.357,1.128,1.128,0,0,1-.085-.426,1.167,1.167,0,0,1,.19-.686.954.954,0,0,1,.592-.373l1.532-.378a.643.643,0,0,0,.354-.229.653.653,0,0,0,.126-.417.638.638,0,0,0-.054-.267.928.928,0,0,0-.144-.224.669.669,0,0,0-.2-.149.535.535,0,0,0-.236-.055m-.246-2.872h-1.863a.609.609,0,0,0-.473.2.721.721,0,0,0-.173.5.678.678,0,0,0,.173.489.616.616,0,0,0,.473.191h1.863a1.348,1.348,0,0,1,.529.109,1.374,1.374,0,0,1,.435.3,1.117,1.117,0,0,1,.276.44,1.677,1.677,0,0,1,.087.536l.024-.031v2.777a.674.674,0,0,0,.189.491.7.7,0,0,0,.52.189.739.739,0,0,0,.53-.189.645.645,0,0,0,.2-.491V69.014a2.7,2.7,0,0,0-.213-1.059,2.813,2.813,0,0,0-.592-.875,2.772,2.772,0,0,0-.876-.592,2.807,2.807,0,0,0-1.106-.212" transform="translate(-3464 9)" fill="#ccc"/>
      <path id="Caminho_3685" data-name="Caminho 3685" d="M278.238,66.188l-.829.032a.608.608,0,0,0-.45.2.736.736,0,0,0-.165.491.791.791,0,0,0,.046.262.714.714,0,0,0,.126.219.627.627,0,0,0,.2.149.445.445,0,0,0,.214.051l.054,0,.735-.032a1.637,1.637,0,0,1,.7.157,1.982,1.982,0,0,1,.568.419,1.633,1.633,0,0,1,.363.608,2.239,2.239,0,0,1,.118.725V71.09a2.22,2.22,0,0,1-.135.757,1.878,1.878,0,0,1-.394.655,2.126,2.126,0,0,1-.608.458,1.564,1.564,0,0,1-.724.174l-1.746-.143h-.1a.573.573,0,0,0-.261.056.508.508,0,0,0-.189.15.838.838,0,0,0-.119.22.77.77,0,0,0-.047.269.663.663,0,0,0,.15.451.643.643,0,0,0,.4.213l1.688.141.1.007.08.009h.064a2.936,2.936,0,0,0,1.278-.283,3.539,3.539,0,0,0,1.04-.76,3.613,3.613,0,0,0,.713-1.087,3.282,3.282,0,0,0,.26-1.279V69.462a3.239,3.239,0,0,0-.244-1.245,3.417,3.417,0,0,0-.673-1.04,3.349,3.349,0,0,0-.986-.72,2.767,2.767,0,0,0-1.231-.269m-2.683-2.579a.685.685,0,0,0-.522.2.7.7,0,0,0-.189.495l.015-.015V72a.657.657,0,0,0,.192.489.7.7,0,0,0,.521.19.734.734,0,0,0,.528-.19.625.625,0,0,0,.2-.48V64.3a.678.678,0,0,0-.2-.5.725.725,0,0,0-.537-.2" transform="translate(-3464 9)" fill="#ccc"/>
      <path id="Caminho_3686" data-name="Caminho 3686" d="M283.682,70.576a.679.679,0,0,0-.52.206.693.693,0,0,0-.19.5,3.035,3.035,0,0,0,.246,1.245,2.958,2.958,0,0,0,.684.986,3.214,3.214,0,0,0,1.027.65,3.505,3.505,0,0,0,1.311.236h1.752a.635.635,0,0,0,.448-.189.627.627,0,0,0,.2-.482.679.679,0,0,0-.2-.5.608.608,0,0,0-.451-.2l.024-.009h-1.751a2.13,2.13,0,0,1-.751-.125,1.7,1.7,0,0,1-.592-.364,1.462,1.462,0,0,1-.372-.553,2.063,2.063,0,0,1-.117-.709.676.676,0,0,0-.2-.5.744.744,0,0,0-.545-.2m2.707-4.474a3.336,3.336,0,0,0-1.328.259,3.41,3.41,0,0,0-1.056.713,3.728,3.728,0,0,0-.733,1.04,2.9,2.9,0,0,0-.285,1.278.644.644,0,0,0,.2.505.722.722,0,0,0,.521.19.734.734,0,0,0,.544-.2.675.675,0,0,0,.2-.5,1.91,1.91,0,0,1,.141-.733,1.739,1.739,0,0,1,.413-.6,2.075,2.075,0,0,1,.631-.41,1.839,1.839,0,0,1,.757-.152,2.022,2.022,0,0,1,.829.159,1.776,1.776,0,0,1,.592.426,2.03,2.03,0,0,1,.388.639,2.1,2.1,0,0,1,.141.764v.168h-3.022a.6.6,0,0,0-.475.205.716.716,0,0,0-.171.495l.013-.029a.7.7,0,0,0,.173.489.623.623,0,0,0,.475.188h3.779a.754.754,0,0,0,.269-.047.614.614,0,0,0,.222-.141.681.681,0,0,0,.15-.221.658.658,0,0,0,.056-.268v-.863a3.226,3.226,0,0,0-.262-1.292,3.48,3.48,0,0,0-.709-1.066,3.437,3.437,0,0,0-1.05-.734,3.366,3.366,0,0,0-1.4-.268" transform="translate(-3464 9)" fill="#ccc"/>
      <path id="Caminho_3687" data-name="Caminho 3687" d="M294.54,67v0m1.5-.686h-.853a.6.6,0,0,0-.473.2.726.726,0,0,0-.174.491.684.684,0,0,0,.174.482.613.613,0,0,0,.473.189h.853a.608.608,0,0,0,.471-.189.669.669,0,0,0,.183-.482.722.722,0,0,0-.183-.5.6.6,0,0,0-.471-.2m-2.724-2.705a.676.676,0,0,0-.52.2.694.694,0,0,0-.189.495V66.3h-.986a.6.6,0,0,0-.474.206.722.722,0,0,0-.175.5l.009-.038a.693.693,0,0,0,.173.489.612.612,0,0,0,.473.19h.987v4.641a2.055,2.055,0,0,0,.173.845,2.349,2.349,0,0,0,.474.687,2.12,2.12,0,0,0,.694.464,2.307,2.307,0,0,0,.883.166h.144l1.089-.079a.623.623,0,0,0,.482-.221.715.715,0,0,0,.15-.449.863.863,0,0,0-.047-.278.739.739,0,0,0-.136-.228.524.524,0,0,0-.229-.142.89.89,0,0,0-.284-.042c-.021,0-.042,0-.064,0l-1.041.079h-.064a.831.831,0,0,1-.314-.064.756.756,0,0,1-.262-.163.656.656,0,0,1-.157-.245,1.031,1.031,0,0,1-.047-.309v-8a.669.669,0,0,0-.2-.5.726.726,0,0,0-.544-.2" transform="translate(-3464 9)" fill="#ccc"/>
      <path id="Caminho_3688" data-name="Caminho 3688" d="M301.121,67v0m1.5-.686h-.854a.6.6,0,0,0-.473.2.731.731,0,0,0-.173.491.688.688,0,0,0,.173.482.613.613,0,0,0,.473.189h.854a.613.613,0,0,0,.472-.189.682.682,0,0,0,.183-.482.736.736,0,0,0-.183-.5.6.6,0,0,0-.472-.2M299.9,63.609a.683.683,0,0,0-.523.2.692.692,0,0,0-.187.495V66.3H298.2a.607.607,0,0,0-.474.206.73.73,0,0,0-.173.5l.009-.038a.7.7,0,0,0,.171.489.619.619,0,0,0,.476.19h.986v4.641a2.023,2.023,0,0,0,.173.845,2.387,2.387,0,0,0,.474.687,2.109,2.109,0,0,0,.694.464,2.3,2.3,0,0,0,.883.166h.142l1.091-.079a.627.627,0,0,0,.483-.221.725.725,0,0,0,.148-.449.836.836,0,0,0-.047-.278.7.7,0,0,0-.136-.228.516.516,0,0,0-.227-.142.907.907,0,0,0-.286-.042c-.02,0-.041,0-.062,0l-1.042.079h-.064a.822.822,0,0,1-.313-.064.738.738,0,0,1-.262-.163.646.646,0,0,1-.158-.245,1,1,0,0,1-.046-.309v-8a.681.681,0,0,0-.2-.5.728.728,0,0,0-.544-.2" transform="translate(-3464 9)" fill="#ccc"/>
      <path id="Caminho_3689" data-name="Caminho 3689" d="M305.223,70.576a.679.679,0,0,0-.52.206.694.694,0,0,0-.191.5,3.035,3.035,0,0,0,.246,1.245,2.938,2.938,0,0,0,.687.986,3.179,3.179,0,0,0,1.024.65,3.515,3.515,0,0,0,1.31.236h1.754a.637.637,0,0,0,.448-.189.626.626,0,0,0,.2-.482.679.679,0,0,0-.2-.5.609.609,0,0,0-.45-.2l.024-.009H307.8a2.138,2.138,0,0,1-.751-.125,1.676,1.676,0,0,1-.592-.364,1.428,1.428,0,0,1-.372-.553,2.016,2.016,0,0,1-.117-.709.676.676,0,0,0-.2-.5.744.744,0,0,0-.545-.2m2.706-4.474a3.314,3.314,0,0,0-1.325.259,3.4,3.4,0,0,0-1.059.713,3.749,3.749,0,0,0-.733,1.04,2.909,2.909,0,0,0-.284,1.278.644.644,0,0,0,.2.505.722.722,0,0,0,.521.19.738.738,0,0,0,.545-.2.675.675,0,0,0,.2-.5,1.91,1.91,0,0,1,.141-.733,1.765,1.765,0,0,1,.412-.6,2.056,2.056,0,0,1,.632-.41,1.835,1.835,0,0,1,.756-.152,2.027,2.027,0,0,1,.83.159,1.776,1.776,0,0,1,.592.426,2.11,2.11,0,0,1,.529,1.4v.168h-3.023a.6.6,0,0,0-.473.205.714.714,0,0,0-.174.495l.017-.029a.694.694,0,0,0,.171.489.62.62,0,0,0,.475.188h3.779a.749.749,0,0,0,.268-.047.575.575,0,0,0,.22-.141.719.719,0,0,0,.152-.221.611.611,0,0,0,.055-.268v-.863a3.225,3.225,0,0,0-.26-1.292,3.446,3.446,0,0,0-1.759-1.8,3.371,3.371,0,0,0-1.4-.268" transform="translate(-3464 9)" fill="#ccc"/>
      <path id="Caminho_3690" data-name="Caminho 3690" d="M315.807,66.267h-.153a2.112,2.112,0,0,0-1.538.632,2.263,2.263,0,0,0-.473.688,2.007,2.007,0,0,0-.182.843l.007-.031v5.446a.676.676,0,0,0,.189.489.71.71,0,0,0,.522.189.727.727,0,0,0,.527-.189.638.638,0,0,0,.2-.489V68.4a.95.95,0,0,1,.048-.307.6.6,0,0,1,.149-.253.721.721,0,0,1,.245-.167.687.687,0,0,1,.257-.048h.05l1.4.032a.553.553,0,0,0,.057,0,.663.663,0,0,0,.228-.041.508.508,0,0,0,.213-.143.7.7,0,0,0,.126-.222.771.771,0,0,0,.047-.268.7.7,0,0,0-.166-.481.664.664,0,0,0-.489-.206l-1.26-.031Z" transform="translate(-3464 9)" fill="#ccc"/>
      <path id="Caminho_3691" data-name="Caminho 3691" d="M323.238,66.141a.687.687,0,0,0-.529.206.7.7,0,0,0-.191.489l.008.117.024.1,1.6,6.306a1.4,1.4,0,0,0,.213.482,1.578,1.578,0,0,0,.363.379,2.114,2.114,0,0,0,.466.252,1.543,1.543,0,0,0,.545.094,1.631,1.631,0,0,0,1-.292,1.764,1.764,0,0,0,.6-.9l.427-1.39.038-.142.017-.118.016-.008a.69.69,0,0,0-.19-.5.678.678,0,0,0-.52-.2.653.653,0,0,0-.442.144.863.863,0,0,0-.247.37l-.426,1.42a.267.267,0,0,1-.26.206.274.274,0,0,1-.269-.206l-1.545-6.337a.695.695,0,0,0-.7-.482m9.714-.014a.728.728,0,0,0-.465.14.672.672,0,0,0-.236.387l-1.531,6.29a.257.257,0,0,1-.278.206.263.263,0,0,1-.251-.206l-1.271-4.238-.213-1.957a.642.642,0,0,0-.238-.451.757.757,0,0,0-.5-.171.656.656,0,0,0-.709.678v.062l.007.07.007.072.228,2.02,1.344,4.334a1.781,1.781,0,0,0,.235.482,1.578,1.578,0,0,0,.363.379,2.125,2.125,0,0,0,.458.252,1.55,1.55,0,0,0,.544.094,1.663,1.663,0,0,0,.568-.094,1.874,1.874,0,0,0,.473-.245,1.48,1.48,0,0,0,.365-.379,1.387,1.387,0,0,0,.212-.482l1.6-6.305.024-.119.009-.1V66.82a.685.685,0,0,0-.207-.5.722.722,0,0,0-.537-.2" transform="translate(-3464 9)" fill="#ccc"/>
      <path id="Caminho_3692" data-name="Caminho 3692" d="M346.245,66.267H346.1a2.1,2.1,0,0,0-1.54.632,2.338,2.338,0,0,0-.474.688,2.037,2.037,0,0,0-.181.843l.007-.031v5.446a.669.669,0,0,0,.191.489.7.7,0,0,0,.52.189.737.737,0,0,0,.529-.189.644.644,0,0,0,.2-.489V68.4a.978.978,0,0,1,.047-.307.576.576,0,0,1,.152-.253.732.732,0,0,1,.243-.167.692.692,0,0,1,.258-.048h.051l1.4.032a.553.553,0,0,0,.057,0,.646.646,0,0,0,.228-.041.5.5,0,0,0,.213-.143.682.682,0,0,0,.127-.222.749.749,0,0,0,.047-.268A.7.7,0,0,0,348,66.5a.662.662,0,0,0-.487-.206l-1.265-.031Z" transform="translate(-3464 9)" fill="#ccc"/>
      <path id="Caminho_3693" data-name="Caminho 3693" d="M350.45,63.585a.684.684,0,0,0-.52.2.7.7,0,0,0-.189.5l.016-.008v9.567a.667.667,0,0,0,.188.489.709.709,0,0,0,.521.189.734.734,0,0,0,.529-.189.637.637,0,0,0,.2-.489V64.278a.674.674,0,0,0-.206-.5.724.724,0,0,0-.536-.195" transform="translate(-3464 9)" fill="#ccc"/>
      <path id="Caminho_3694" data-name="Caminho 3694" d="M356.473,66.2a2.786,2.786,0,0,0-1.233.268,3.251,3.251,0,0,0-.969.719,3.576,3.576,0,0,0-.664,1.043,3.189,3.189,0,0,0-.246,1.247v1.554a3.133,3.133,0,0,0,.271,1.287,3.64,3.64,0,0,0,1.8,1.847,3.08,3.08,0,0,0,1.326.283h.284l2.3-.094a.589.589,0,0,0,.46-.213.731.731,0,0,0,.164-.474l.033-.015a.652.652,0,0,0-.056-.269.885.885,0,0,0-.141-.22.6.6,0,0,0-.213-.15.542.542,0,0,0-.226-.05l-.05,0-2.558.1a1.76,1.76,0,0,1-.749-.166,2.1,2.1,0,0,1-.633-.45,1.924,1.924,0,0,1-.408-.647,2.09,2.09,0,0,1-.145-.774V69.471a2.253,2.253,0,0,1,.118-.733,1.759,1.759,0,0,1,.357-.607,1.712,1.712,0,0,1,.567-.412,1.653,1.653,0,0,1,.7-.15h.065l.654.033a.638.638,0,0,0,.647-.681.672.672,0,0,0-.182-.48.648.648,0,0,0-.473-.2l-.8-.034Zm2.643-2.6a.685.685,0,0,0-.529.205.7.7,0,0,0-.19.5l.016-.008v7.545a.663.663,0,0,0,.19.49.713.713,0,0,0,.529.189.739.739,0,0,0,.529-.189.649.649,0,0,0,.2-.49V64.294a.675.675,0,0,0-.2-.5.723.723,0,0,0-.536-.2" transform="translate(-3464 9)" fill="#ccc"/>
      <path id="Caminho_3695" data-name="Caminho 3695" d="M183.337,66.319h-2.11a2.3,2.3,0,0,0-.949.189,2.4,2.4,0,0,0-.737.5,2.243,2.243,0,0,0-.494.737,2.263,2.263,0,0,0-.039,1.671,2.68,2.68,0,0,0,.384.728,2.187,2.187,0,0,0,.589.543,1.417,1.417,0,0,0,.574.185l0,.014,1.883.232a.869.869,0,0,1,.683.917,1.139,1.139,0,0,1-.065.377.77.77,0,0,1-.186.306.965.965,0,0,1-.306.2,1.007,1.007,0,0,1-.377.071h-2.674a.574.574,0,0,0-.464.2.749.749,0,0,0-.164.494V73.7a.714.714,0,0,0,.164.485.586.586,0,0,0,.464.189h2.674a2.282,2.282,0,0,0,.941-.189,2.393,2.393,0,0,0,1.24-1.238,2.234,2.234,0,0,0,.188-.911,2.19,2.19,0,0,0-.127-.753,2.412,2.412,0,0,0-.351-.66A2.237,2.237,0,0,0,182.8,69.8l-.109-.023-1.716-.213v0l-.025-.011a.869.869,0,0,1-.652-.919,1.167,1.167,0,0,1,.056-.377.783.783,0,0,1,.187-.305.963.963,0,0,1,.305-.205,1.059,1.059,0,0,1,.377-.069h2.11a.612.612,0,0,0,.471-.189.666.666,0,0,0,.181-.478.723.723,0,0,0-.181-.495.6.6,0,0,0-.471-.195v-.009Z" transform="translate(-3464 9)" fill="#ccc"/>
      <path id="Caminho_3696" data-name="Caminho 3696" d="M212.091,73.175a1.991,1.991,0,0,1-.756-.144,1.773,1.773,0,0,1-.607-.395,1.72,1.72,0,0,1-.4-.6,2.028,2.028,0,0,1-.141-.756l.031-1.879a1.89,1.89,0,0,1,.142-.734,1.807,1.807,0,0,1,.387-.6,1.76,1.76,0,0,1,.606-.412,1.985,1.985,0,0,1,1.514,0,1.8,1.8,0,0,1,.608.412,1.84,1.84,0,0,1,.387.6,1.908,1.908,0,0,1,.141.734l.032,1.879a2.028,2.028,0,0,1-.141.756,1.748,1.748,0,0,1-.4.6,1.807,1.807,0,0,1-.608.395,1.993,1.993,0,0,1-.758.144l-.022-.006-.025.006Zm.025-7.066a3.047,3.047,0,0,0-1.285.261,3.676,3.676,0,0,0-1.785,1.753,2.92,2.92,0,0,0-.283,1.278l-.033,1.879A3.03,3.03,0,0,0,209,72.55a3.4,3.4,0,0,0,.743,1.042,3.785,3.785,0,0,0,1.042.71,3.088,3.088,0,0,0,1.295.259l.039,0,.038,0a3.074,3.074,0,0,0,1.294-.259,3.77,3.77,0,0,0,1.042-.71,3.4,3.4,0,0,0,.743-1.042,3.03,3.03,0,0,0,.267-1.27l-.032-1.879a2.92,2.92,0,0,0-.282-1.278A3.71,3.71,0,0,0,213.4,66.37a3.054,3.054,0,0,0-1.285-.261" transform="translate(-3464 9)" fill="#ccc"/>
      <path id="Caminho_3697" data-name="Caminho 3697" d="M220.4,73.175a1.982,1.982,0,0,1-.755-.144,1.821,1.821,0,0,1-.609-.395,1.745,1.745,0,0,1-.394-.6,2.028,2.028,0,0,1-.141-.756l.031-1.879a1.908,1.908,0,0,1,.141-.734,1.859,1.859,0,0,1,.388-.6,1.779,1.779,0,0,1,.606-.412,1.985,1.985,0,0,1,1.514,0,1.8,1.8,0,0,1,.608.412,1.84,1.84,0,0,1,.387.6,1.89,1.89,0,0,1,.142.734l.031,1.879a2.009,2.009,0,0,1-.142.756,1.743,1.743,0,0,1-.393.6,1.821,1.821,0,0,1-.609.395,1.983,1.983,0,0,1-.756.144l-.024-.006-.025.006Zm.025-7.066a3.061,3.061,0,0,0-1.286.261,3.7,3.7,0,0,0-1.784,1.753,2.92,2.92,0,0,0-.283,1.278l-.033,1.879a3.016,3.016,0,0,0,.269,1.27,3.363,3.363,0,0,0,.742,1.042,3.785,3.785,0,0,0,1.042.71,3.075,3.075,0,0,0,1.295.259l.038,0,.038,0a3.075,3.075,0,0,0,1.295-.259,3.766,3.766,0,0,0,1.041-.71,3.363,3.363,0,0,0,.742-1.042,3,3,0,0,0,.268-1.27l-.031-1.879a2.92,2.92,0,0,0-.283-1.278,3.71,3.71,0,0,0-1.785-1.753,3.054,3.054,0,0,0-1.285-.261" transform="translate(-3464 9)" fill="#ccc"/>
      <path id="Caminho_3698" data-name="Caminho 3698" d="M247.8,73.175a1.991,1.991,0,0,1-.756-.144,1.817,1.817,0,0,1-.608-.395,1.717,1.717,0,0,1-.394-.6,2.029,2.029,0,0,1-.143-.756l.033-1.879a1.908,1.908,0,0,1,.141-.734,1.842,1.842,0,0,1,.388-.6,1.76,1.76,0,0,1,.606-.412,1.985,1.985,0,0,1,1.514,0,1.764,1.764,0,0,1,.607.412,1.826,1.826,0,0,1,.388.6,1.909,1.909,0,0,1,.142.734l.031,1.879a2.028,2.028,0,0,1-.142.756,1.694,1.694,0,0,1-.4.6,1.778,1.778,0,0,1-.606.395,2.007,2.007,0,0,1-.757.144l-.023-.006-.025.006Zm.025-7.066a3.066,3.066,0,0,0-1.287.261,3.706,3.706,0,0,0-1.783,1.753,2.922,2.922,0,0,0-.285,1.278l-.031,1.879a3,3,0,0,0,.269,1.27,3.347,3.347,0,0,0,.742,1.042,3.766,3.766,0,0,0,1.041.71,3.075,3.075,0,0,0,1.293.259l.041,0,.038,0a3.074,3.074,0,0,0,1.294-.259,3.8,3.8,0,0,0,1.042-.71,3.331,3.331,0,0,0,.742-1.042,3,3,0,0,0,.268-1.27l-.031-1.879a2.921,2.921,0,0,0-.283-1.278,3.71,3.71,0,0,0-1.785-1.753,3.054,3.054,0,0,0-1.285-.261" transform="translate(-3464 9)" fill="#ccc"/>
      <path id="Caminho_3699" data-name="Caminho 3699" d="M338.379,73.193a1.99,1.99,0,0,1-.756-.142,1.814,1.814,0,0,1-.608-.394,1.739,1.739,0,0,1-.394-.6,2.025,2.025,0,0,1-.142-.756l.031-1.879a1.9,1.9,0,0,1,.142-.733,1.841,1.841,0,0,1,.388-.6,1.727,1.727,0,0,1,.607-.41,1.947,1.947,0,0,1,1.513,0,1.75,1.75,0,0,1,.608.41,1.855,1.855,0,0,1,.387.6,1.9,1.9,0,0,1,.141.733l.032,1.879a2,2,0,0,1-.142.756,1.768,1.768,0,0,1-.394.6,1.814,1.814,0,0,1-.608.394,1.992,1.992,0,0,1-.758.142l-.023,0-.024,0Zm.024-7.064a3.057,3.057,0,0,0-1.285.26,3.722,3.722,0,0,0-1.785,1.753,2.923,2.923,0,0,0-.282,1.278l-.032,1.879a3,3,0,0,0,.267,1.269,3.348,3.348,0,0,0,.742,1.043,3.793,3.793,0,0,0,1.043.711,3.1,3.1,0,0,0,1.293.26l.039,0,.041,0a3.1,3.1,0,0,0,1.292-.26,3.788,3.788,0,0,0,1.042-.711,3.317,3.317,0,0,0,.742-1.043,2.989,2.989,0,0,0,.268-1.269l-.03-1.879a2.911,2.911,0,0,0-.285-1.278,3.714,3.714,0,0,0-1.784-1.753,3.058,3.058,0,0,0-1.286-.26" transform="translate(-3464 9)" fill="#ccc"/>
    </g>
    <path id="Caminho_3700" data-name="Caminho 3700" d="M.762,23.642A30.378,30.378,0,0,0,26.3,60.506c1.154-2.924.835-5.956-2.268-9A12.9,12.9,0,0,1,26.294,52.8a14.258,14.258,0,0,1,1.854,1.5,5.36,5.36,0,0,1,1.7,3.177,6.539,6.539,0,0,1-.625,3.278c.146.007-.119,0,.029,0,0,0,3.082-3.363-.24-10.881-.243-.55-.545-1.067-.788-1.619l-.007-.005a14.086,14.086,0,0,1,1.4-14.708,10.205,10.205,0,0,0-.865,1.758,9.981,9.981,0,0,0-.661,3.173,11.512,11.512,0,0,0,.417,3.61,14.174,14.174,0,0,0,.627,1.8c.064.151.134.3.2.447l.045.11.012.029.017.041.029.052.1.209c1.489,2.9,5.667,6.629,5.55,12.84-.019.962-.045,1.913-.112,2.824A30.4,30.4,0,0,0,56.53,14.921a4,4,0,0,1-2.592.282,4,4,0,0,1,1.533-1.949A30.482,30.482,0,0,0,48.4,5.919a4.869,4.869,0,0,1-4.253,3.823A4.836,4.836,0,0,1,47.4,5.207,30.217,30.217,0,0,0,30.73,0a17.607,17.607,0,0,1-.337,22.987A17.594,17.594,0,0,1,30.057,0,30.222,30.222,0,0,0,13.288,5.259a4.829,4.829,0,0,1,3.12,4.483,4.846,4.846,0,0,1-4.219-3.7,30.535,30.535,0,0,0-6.96,7.3,3.973,3.973,0,0,1,.472.411A4.021,4.021,0,0,1,6.615,15.2a4.008,4.008,0,0,1-2.435-.2A30.2,30.2,0,0,0,.823,23.374m18.908-20.2a8.291,8.291,0,0,1,3.716,10.356A8.291,8.291,0,0,1,19.731,3.175ZM15.7,12.218a12.2,12.2,0,0,1,9.7,12.963,12.19,12.19,0,0,1-9.7-12.963ZM9.467,22.858a8.261,8.261,0,0,1-3.625-4.636,8.282,8.282,0,0,1,9.411,5.693,8.251,8.251,0,0,1-5.786-1.057Zm9.992,13.7a6.235,6.235,0,0,1-4.439-.308,6.263,6.263,0,0,1,7.964-2.411,6.239,6.239,0,0,1-3.525,2.719Zm-.619-5.6a8.253,8.253,0,0,1-4.989-3.119A8.282,8.282,0,0,1,24.64,29.968a8.241,8.241,0,0,1-5.8.984Zm7.277,2.8A3.074,3.074,0,0,1,24.3,32.541a3.074,3.074,0,0,1,3.982.916,3.062,3.062,0,0,1-2.165.3Zm.554-5.245a3.066,3.066,0,0,1-1.125-1.874,3.077,3.077,0,0,1,3.21,2.529,3.059,3.059,0,0,1-2.085-.655ZM37,7.647a8.258,8.258,0,0,1,3.825-4.472A8.289,8.289,0,0,1,37.1,13.531,8.274,8.274,0,0,1,37,7.647Zm.544,9.21a12.149,12.149,0,0,1,7.31-4.639,12.19,12.19,0,0,1-9.7,12.963,12.161,12.161,0,0,1,2.388-8.324Zm-3.6,10.435a3.07,3.07,0,0,1,2.086-.655,3.079,3.079,0,0,1-3.21,2.529,3.07,3.07,0,0,1,1.124-1.874Zm-3.1,17.7a9.682,9.682,0,0,1-.783-1.5,16.386,16.386,0,0,1-.628-1.674,11.675,11.675,0,0,1-.512-3.324,10.279,10.279,0,0,1,.439-2.985,11.54,11.54,0,0,1,1.04-2.367,13.386,13.386,0,0,1,1.16-1.655l.018-.021a19.954,19.954,0,0,0-.734,13.525Zm3.5-11.237a3.06,3.06,0,0,1-2.164-.3,3.074,3.074,0,0,1,3.981-.916,3.065,3.065,0,0,1-1.817,1.215Zm6.752,2.8a6.242,6.242,0,0,1-3.525-2.719,6.266,6.266,0,0,1,7.965,2.411,6.238,6.238,0,0,1-4.44.308Zm.619-5.6a8.237,8.237,0,0,1-5.8-.984A8.28,8.28,0,0,1,46.7,27.833a8.247,8.247,0,0,1-4.989,3.119ZM45.3,23.915a8.284,8.284,0,0,1,9.413-5.693A8.282,8.282,0,0,1,45.3,23.915Z" transform="translate(-3464 9)" fill="#00ae8d"/>
  </g>
</svg>
