<?xml version="1.0" encoding="UTF-8"?> <svg xmlns="http://www.w3.org/2000/svg" id="Capa_1" data-name="Capa 1" viewBox="0 0 815.54 263.63"><defs><style>.cls-1{fill:#ec0000;}</style></defs><path class="cls-1" d="M335.27,296.13v23.21h28.18a63,63,0,0,1-.67,6.41H335.27v30.08h-6.68v-66.1h37.54a40.2,40.2,0,0,1-.77,6.4Z" transform="translate(-150.52 -111.5)"></path><path class="cls-1" d="M414.27,306.54v49.29H408l-.2-4.29a18.19,18.19,0,0,1-6.68,4.1,27.94,27.94,0,0,1-9.17,1.34q-17.19,0-17.2-18.53V306.54h6.69v30.57q0,7.36,3.06,10.75t9.55,3.39a19.34,19.34,0,0,0,7.35-1.39,18.91,18.91,0,0,0,6.21-4.06V306.54Z" transform="translate(-150.52 -111.5)"></path><path class="cls-1" d="M457.87,307.5a13.61,13.61,0,0,1,6.83,6.07,21.17,21.17,0,0,1,2.11,10v32.28h-6.69v-31a17.66,17.66,0,0,0-1.39-7.59,9,9,0,0,0-4.68-4.4,22.54,22.54,0,0,0-9-1.48A47.92,47.92,0,0,0,434,312.66v43.17h-6.69V308.07a69.85,69.85,0,0,1,18-2.67Q453.14,305.4,457.87,307.5Z" transform="translate(-150.52 -111.5)"></path><path class="cls-1" d="M517.53,289.16v66.67h-6.21l-.29-4a17.72,17.72,0,0,1-6.11,3.82,23.82,23.82,0,0,1-8.41,1.34,19.79,19.79,0,0,1-10.79-3,19.31,19.31,0,0,1-7.26-8.69,33.36,33.36,0,0,1-2.58-13.76q0-12.79,6.26-19.48t18.67-6.69a37.38,37.38,0,0,1,10,1.34V290.12A21.08,21.08,0,0,1,517.53,289.16Zm-30.9,57q4,5.25,11.6,5.25a17.45,17.45,0,0,0,12.61-5.16V312.85a38.87,38.87,0,0,0-10.32-1.53q-9,0-13.42,5.16t-4.44,15.09Q482.66,340.93,486.63,346.19Z" transform="translate(-150.52 -111.5)"></path><path class="cls-1" d="M560.94,306a37.74,37.74,0,0,1,7.59,2.05v47.76h-6.21l-.19-3.72a19.26,19.26,0,0,1-13,4.87,22.3,22.3,0,0,1-11.7-3,19.34,19.34,0,0,1-7.59-8.69,32.23,32.23,0,0,1-2.68-13.76q0-12.79,6.36-19.48t19.05-6.69A53.36,53.36,0,0,1,560.94,306Zm-23,40.17q4,5.25,11.75,5.25a16.88,16.88,0,0,0,12.13-4.87v-34.1a35.67,35.67,0,0,0-9.27-1.15q-9.45,0-14,5.21t-4.58,15Q534,340.93,538,346.19Z" transform="translate(-150.52 -111.5)"></path><path class="cls-1" d="M586.87,342.27a14.82,14.82,0,0,0,6,6.64,17.85,17.85,0,0,0,8.88,2.15,22.26,22.26,0,0,0,6.6-1,23.27,23.27,0,0,0,6-2.81c-.25,2.48-.54,4.62-.86,6.4a19,19,0,0,1-10.5,3.24l-1.25,3.54q6.69,1.33,6.69,7.35a6.83,6.83,0,0,1-2.2,5.4q-2.19,2-6.68,2a15.84,15.84,0,0,1-3.39-.34,10.46,10.46,0,0,1-2.53-.81,18.37,18.37,0,0,1,.47-4.1,13.15,13.15,0,0,0,5.16,1.05q4.49,0,4.49-3c0-2.43-2.64-3.73-7.93-3.92l2.39-7.17a22.88,22.88,0,0,1-10.79-3.82,20.36,20.36,0,0,1-7.07-8.64,35.15,35.15,0,0,1,.33-26.79,20.3,20.3,0,0,1,8.46-9q5.63-3.19,13.94-3.2a28.07,28.07,0,0,1,11.37,2.29,34.34,34.34,0,0,1-.76,5.83,25.45,25.45,0,0,0-10.61-2.2q-9.08,0-13.75,5.16t-4.68,14.71A25.15,25.15,0,0,0,586.87,342.27Z" transform="translate(-150.52 -111.5)"></path><path class="cls-1" d="M653.21,306a38,38,0,0,1,7.6,2.05v47.76H654.6l-.19-3.72a19.31,19.31,0,0,1-13,4.87,22.31,22.31,0,0,1-11.71-3,19.34,19.34,0,0,1-7.59-8.69,32.38,32.38,0,0,1-2.67-13.76q0-12.79,6.35-19.48t19.05-6.69A53.26,53.26,0,0,1,653.21,306Zm-23,40.17q4,5.25,11.75,5.25a16.88,16.88,0,0,0,12.13-4.87v-34.1a35.62,35.62,0,0,0-9.27-1.15q-9.45,0-14,5.21t-4.58,15Q626.23,340.93,630.24,346.19Zm16.53-47.53a30.77,30.77,0,0,1-3.73-2.43,21.75,21.75,0,0,0-2.58-1.82,4.28,4.28,0,0,0-2.1-.66,2.49,2.49,0,0,0-2.2,1.14,13.3,13.3,0,0,0-1.43,4.11c-.76-.06-1.59-.18-2.48-.34a7.23,7.23,0,0,1-1.91-.52q1.14-5.07,2.91-7.21a5.88,5.88,0,0,1,4.82-2.15,7.1,7.1,0,0,1,3.54.91,36.88,36.88,0,0,1,3.91,2.62c1.08.83,1.93,1.44,2.53,1.82a3.35,3.35,0,0,0,1.77.57,2.76,2.76,0,0,0,1.53-.43,3.91,3.91,0,0,0,1.24-1.72,18.55,18.55,0,0,0,1-3.87,17.19,17.19,0,0,1,2.39.43,8.93,8.93,0,0,1,2,.72,18,18,0,0,1-2.82,7.16,6.13,6.13,0,0,1-5.21,2.49A6.69,6.69,0,0,1,646.77,298.66Z" transform="translate(-150.52 -111.5)"></path><path class="cls-1" d="M680.58,353.73a20.37,20.37,0,0,1-7.79-9,35.2,35.2,0,0,1,.2-27.13,20.49,20.49,0,0,1,8.11-9,24.37,24.37,0,0,1,12.66-3.15,23.59,23.59,0,0,1,12.75,3.25,20,20,0,0,1,7.79,9,31.55,31.55,0,0,1,2.58,13.08,32.92,32.92,0,0,1-2.77,14,20.19,20.19,0,0,1-8.12,9.08,24.79,24.79,0,0,1-12.8,3.15A23.16,23.16,0,0,1,680.58,353.73Zm25.31-8q4.2-5.25,4.21-14.52,0-9.46-4.25-14.61t-12.28-5.16q-8.12,0-12.37,5.25T677,331q0,9.64,4.25,14.8T693.57,351Q701.69,351,705.89,345.71Z" transform="translate(-150.52 -111.5)"></path><path class="cls-1" d="M258.15,177a32.41,32.41,0,0,0-4.33-14.87l-23.51-40.73a32.67,32.67,0,0,1-3.72-9.85l-1,1.71a32.56,32.56,0,0,0,0,32.57l18.81,32.59a32.58,32.58,0,0,1,0,32.58l-1,1.7a32.77,32.77,0,0,0-3.72-9.85L222.5,173l-11-19a32.67,32.67,0,0,1-3.72-9.85l-1,1.71a32.57,32.57,0,0,0-.06,32.47h0L225.61,211a32.58,32.58,0,0,1,0,32.58l-1,1.7a32.77,32.77,0,0,0-3.72-9.85l-23.52-40.72A32.65,32.65,0,0,1,193.06,177c-25.17,6.58-42.54,20.54-42.54,36.71,0,22.49,33.62,40.73,75.09,40.73s75.09-18.24,75.09-40.73C300.7,197.49,283.33,183.53,258.15,177Zm70.9,69.54a47.47,47.47,0,0,1,2.68-14.25,65.83,65.83,0,0,0,25.81,5.5c13.12,0,20.45-4.23,20.45-12.55s-5.36-12-18.61-17.77l-7.2-3.1c-13.26-5.79-22.28-13.26-22.28-28.22,0-16.07,11.14-26.37,34-26.37a77.37,77.37,0,0,1,25.81,4.09,54,54,0,0,1-2.82,14.1,71.58,71.58,0,0,0-23.13-4.09c-12.27,0-17.91,4.8-17.91,12.27s5.5,11.57,15.37,15.8l7.62,3.25c17.91,7.61,25.38,15.65,25.38,29.33,0,16.23-12.27,27.37-36.24,27.37C346.4,251.85,337,250.16,329.05,246.49ZM470,179.07v70.52H455.72l-.85-8.46c-3.95,6.2-10,10.15-19.89,10.15-18.62,0-31-13.54-31-37.23,0-24.83,13.26-38.93,39.35-38.93C453.46,175.12,461.78,176.25,470,179.07Zm-15.51,54.44V189.22a64.56,64.56,0,0,0-11.15-.84c-16.08,0-23.55,9.87-23.55,25.67,0,14.38,5.78,24.54,19.6,24.54A24.27,24.27,0,0,0,454.45,233.51Zm94.93-31.31v47.39H533.86V204.88c0-11.14-3.67-16.5-19.18-16.5a78.32,78.32,0,0,0-12.27,1.12v60.09H486.89V179.07c9.87-2.4,20.73-3.95,28.21-3.95C541.05,175.12,549.38,185.13,549.38,202.2Zm43,35.83a35.18,35.18,0,0,0,12.13-2.12c-.42,4.23-1,9-1.83,13.12a35.31,35.31,0,0,1-13.12,2.25c-15.09,0-24.69-6.91-24.69-24.12v-74a53.72,53.72,0,0,1,15.52-2.25v26.66H605a117.91,117.91,0,0,1-1.41,13.25H580.41v34.56C580.41,234.5,584.92,238,592.4,238Zm83.22-59v70.52H661.38l-.85-8.46c-3.95,6.2-10,10.15-19.89,10.15-18.62,0-31-13.54-31-37.23,0-24.83,13.26-38.93,39.35-38.93C659.12,175.12,667.44,176.25,675.62,179.07Zm-15.51,54.44V189.22a64.56,64.56,0,0,0-11.15-.84c-16.08,0-23.55,9.87-23.55,25.67,0,14.38,5.78,24.54,19.6,24.54A24.27,24.27,0,0,0,660.11,233.51ZM755,202.2v47.39H739.52V204.88c0-11.14-3.67-16.5-19.18-16.5a78.32,78.32,0,0,0-12.27,1.12v60.09H692.55V179.07c9.87-2.4,20.74-3.95,28.21-3.95C746.71,175.12,755,185.13,755,202.2Zm78.7-51.34v98.73H819.5l-.85-9c-3.95,6.63-10,10.72-20.17,10.72-18.62,0-31-13.54-31-37.23,0-24.83,13.26-38.93,39.35-38.93a60.38,60.38,0,0,1,11.57,1.13V153C823.17,151.28,828.67,150.86,833.74,150.86Zm-15.37,82.37V189.79A61.72,61.72,0,0,0,806,188.38c-15.38,0-22.71,9.59-22.71,25.67,0,14.38,5.78,24.54,19.61,24.54A24.89,24.89,0,0,0,818.37,233.23Zm93.38-13.82H862.24c2,12.55,9.31,18.62,23.13,18.62a60.61,60.61,0,0,0,24.83-5.36c-.57,4.09-1.41,9.45-2.4,14.1-7,3.24-14.53,4.51-22.85,4.51-26,0-38.51-14.38-38.51-38.5,0-21,9.74-37.66,34.42-37.66,22.14,0,31.73,14.53,31.73,32.3A83.37,83.37,0,0,1,911.75,219.41Zm-49.79-13h35c0-11.57-6.21-18.34-16.93-18.34C869,188.09,863.23,194.44,862,206.43Zm104.1-30.75a57.5,57.5,0,0,1-1.42,13.26,100.74,100.74,0,0,0-11.7-.56,78.5,78.5,0,0,0-11.43.84v60.37H926V179.07c6.63-2.26,17.77-3.95,26.51-3.95A127.62,127.62,0,0,1,966.06,175.68Z" transform="translate(-150.52 -111.5)"></path></svg> 